<svg width="36" height="36" viewBox="0 0 36 36" fill="none" xmlns="http://www.w3.org/2000/svg">
<path d="M7.50195 30.1196C8.25972 29.271 11.8087 25.3655 12.8488 25.3655H23.8454C25.3525 25.3655 28.429 28.6029 29.1915 29.744M34.1209 18.289C34.1209 27.0008 27.0586 34.0632 18.3467 34.0632C9.63487 34.0632 2.57251 27.0008 2.57251 18.289C2.57251 9.57713 9.63487 2.51477 18.3467 2.51477C27.0586 2.51477 34.1209 9.57713 34.1209 18.289ZM23.9972 12.9125C23.9972 9.9031 21.4567 7.44421 18.3472 7.44421C15.2377 7.44421 12.6972 9.9031 12.6972 12.9125C12.6972 15.922 15.2377 18.3809 18.3472 18.3809C21.4567 18.3809 23.9972 15.922 23.9972 12.9125Z" stroke="white" stroke-width="3.2863"/>
</svg>
