<svg width="34" height="34" viewBox="0 0 34 34" fill="none" xmlns="http://www.w3.org/2000/svg">
<path d="M28.37 10.383C27.9629 10.1014 27.4711 9.9687 26.9775 10.0072C26.484 10.0457 26.0187 10.253 25.6601 10.5944C24.0325 11.7997 22.1124 12.5481 20.0984 12.762C19.7371 12.7526 19.3937 12.603 19.1409 12.3447C18.8881 12.0865 18.7458 11.7399 18.7441 11.3786V9.93947C20.8745 9.94735 22.9265 9.13695 24.4766 7.67559C26.0268 6.21422 26.9566 4.21345 27.0742 2.08634C27.1046 1.84023 27.0785 1.59042 26.9978 1.35592C26.9172 1.12142 26.7841 0.908397 26.6088 0.733048C26.4334 0.557699 26.2204 0.424644 25.9859 0.344C25.7514 0.263356 25.5016 0.237247 25.2555 0.267659C22.6763 0.374722 18.8832 2.38111 18.0934 5.41224C17.6205 3.64836 16.7549 2.0142 15.5615 0.631951C15.302 0.374762 14.9518 0.230017 14.5864 0.229009C14.2211 0.228001 13.8701 0.370812 13.6092 0.626565C13.3483 0.882318 13.1986 1.23046 13.1924 1.59574C13.1861 1.96101 13.3239 2.31405 13.5759 2.57855C14.9612 4.29177 15.7717 6.3978 15.8924 8.5977H12.4872C9.26269 8.69624 6.20857 10.0684 3.9935 12.4138C1.77842 14.7591 0.582883 17.8866 0.668616 21.1115C0.444758 28.8979 8.51617 36.0906 15.6157 32.7703C16.1579 32.4255 16.7881 32.2446 17.4306 32.2493C18.0731 32.254 18.7006 32.444 19.2377 32.7967C20.1455 33.3215 21.1718 33.6067 22.2202 33.6254C34.335 33.5169 38.2991 16.7651 28.37 10.383Z" fill="#FF962C"/>
</svg>
