<svg width="16" height="9" viewBox="0 0 16 9" fill="none" xmlns="http://www.w3.org/2000/svg">
<path d="M15.3866 0.832014C15.2473 0.692624 15.0819 0.582049 14.8998 0.506607C14.7178 0.431164 14.5226 0.392334 14.3256 0.392334C14.1285 0.392334 13.9334 0.431164 13.7513 0.506607C13.5693 0.582049 13.4039 0.692624 13.2646 0.832014L8.67857 5.41701C8.5848 5.51075 8.45765 5.56341 8.32507 5.56341C8.19248 5.56341 8.06533 5.51075 7.97157 5.41701L3.38657 0.832014C3.1053 0.550619 2.72378 0.39248 2.32592 0.392386C1.92806 0.392293 1.54646 0.550251 1.26507 0.831513C0.983671 1.11278 0.825533 1.4943 0.825439 1.89216C0.825346 2.29002 0.983304 2.67162 1.26457 2.95301L5.85057 7.53901C6.17558 7.86406 6.56143 8.1219 6.98609 8.29781C7.41075 8.47372 7.86591 8.56427 8.32557 8.56427C8.78522 8.56427 9.24038 8.47372 9.66504 8.29781C10.0897 8.1219 10.4756 7.86406 10.8006 7.53901L15.3866 2.95301C15.6678 2.67172 15.8257 2.29026 15.8257 1.89251C15.8257 1.49477 15.6678 1.11331 15.3866 0.832014Z" fill="#2C2C2C"/>
</svg>
