<svg width="14" height="16" viewBox="0 0 14 16" fill="none" xmlns="http://www.w3.org/2000/svg">
<path d="M13.3868 4.77958L9.80081 1.19358C9.13395 0.557205 8.24759 0.202148 7.32581 0.202148C6.40403 0.202148 5.51767 0.557205 4.85081 1.19358L1.26481 4.77958C0.983549 5.06097 0.82559 5.44258 0.825684 5.84043C0.825777 6.23829 0.983916 6.61982 1.26531 6.90108C1.54671 7.18234 1.92831 7.3403 2.32616 7.34021C2.72402 7.34011 3.10555 7.18197 3.38681 6.90058L5.82581 4.46158V14.2546C5.82581 14.6524 5.98385 15.0339 6.26515 15.3152C6.54646 15.5965 6.92799 15.7546 7.32581 15.7546C7.72364 15.7546 8.10517 15.5965 8.38647 15.3152C8.66778 15.0339 8.82581 14.6524 8.82581 14.2546V4.46158L11.2648 6.90058C11.4041 7.03991 11.5694 7.15045 11.7514 7.22588C11.9334 7.30131 12.1285 7.34016 12.3255 7.34021C12.5225 7.34025 12.7175 7.3015 12.8996 7.22615C13.0816 7.15081 13.247 7.04035 13.3863 6.90108C13.5256 6.76181 13.6362 6.59647 13.7116 6.41448C13.787 6.23249 13.8259 6.03743 13.8259 5.84043C13.826 5.64343 13.7872 5.44835 13.7119 5.26633C13.6365 5.08431 13.5261 4.91891 13.3868 4.77958Z" fill="white"/>
</svg>
