<svg width="37" height="36" viewBox="0 0 37 36" fill="none" xmlns="http://www.w3.org/2000/svg">
<path d="M0.641164 17.2635C0.685294 17.122 0.705077 16.9744 0.755294 16.8344L4.86095 5.53246C5.39711 4.06596 6.37046 2.79935 7.64951 1.90374C8.92856 1.00813 10.4517 0.526677 12.0131 0.524414H24.7957C26.3574 0.526573 27.8808 1.00817 29.1599 1.90409C30.439 2.80002 31.4122 4.06707 31.9479 5.53398L36.0566 16.8344C36.1068 16.9744 36.1266 17.122 36.1707 17.2635H0.641164ZM30.5783 20.307V23.3505C30.5783 23.7541 30.418 24.1412 30.1326 24.4265C29.8473 24.7119 29.4602 24.8722 29.0566 24.8722C28.653 24.8722 28.266 24.7119 27.9806 24.4265C27.6952 24.1412 27.5349 23.7541 27.5349 23.3505V20.307H9.27399V23.3505C9.27399 23.7541 9.11367 24.1412 8.82829 24.4265C8.5429 24.7119 8.15584 24.8722 7.75225 24.8722C7.34866 24.8722 6.9616 24.7119 6.67622 24.4265C6.39084 24.1412 6.23051 23.7541 6.23051 23.3505V20.307H0.143555V23.3505C0.1455 24.8293 0.578324 26.2754 1.3891 27.5121C2.19987 28.7488 3.35345 29.7225 4.70877 30.314V32.4809C4.70877 33.2881 5.02942 34.0622 5.60019 34.633C6.17095 35.2038 6.94507 35.5244 7.75225 35.5244C8.55943 35.5244 9.33355 35.2038 9.90432 34.633C10.4751 34.0622 10.7957 33.2881 10.7957 32.4809V30.9592H26.0131V32.4809C26.0131 33.2881 26.3338 34.0622 26.9045 34.633C27.4753 35.2038 28.2494 35.5244 29.0566 35.5244C29.8638 35.5244 30.6379 35.2038 31.2087 34.633C31.7794 34.0622 32.1001 33.2881 32.1001 32.4809V30.314C33.4554 29.7225 34.609 28.7488 35.4198 27.5121C36.2305 26.2754 36.6634 24.8293 36.6653 23.3505V20.307H30.5783Z" fill="white"/>
</svg>
