<svg width="85" height="85" viewBox="0 0 85 85" fill="none" xmlns="http://www.w3.org/2000/svg">
<circle cx="42.3999" cy="42.3999" r="42.3999" fill="white"/>
<path d="M10.0063 33.0946C11.6 32.7798 13.1543 32.524 14.689 32.1502C18.6043 31.2058 22.559 30.8123 26.5924 31.0878C29.583 31.3042 32.5145 31.7764 35.4068 32.5044C38.4171 33.252 41.447 33.7832 44.5557 33.2127C46.4838 32.8388 48.3923 32.3863 50.3205 31.9928C56.164 30.7729 62.0074 30.5762 67.8706 31.9731C69.661 32.3863 71.4515 32.7011 73.3206 33.0946C73.3206 34.1177 73.3599 35.1211 73.3009 36.1442C73.2812 36.4394 73.1042 36.7935 72.8877 37.0099C71.2547 38.5643 70.7038 40.5908 70.1529 42.6764C69.6807 44.5061 69.0511 46.3162 68.4018 48.087C67.7919 49.72 66.5917 50.8415 65.0177 51.6088C61.0237 53.537 56.9116 53.8911 52.7011 52.5729C50.0057 51.7269 48.2152 49.7003 46.7396 47.3984C45.5591 45.5686 44.7328 43.5814 44.0441 41.5155C43.8474 40.9253 43.6506 40.335 43.3752 39.7841C43.0407 39.0955 42.4898 38.6626 41.6831 38.6626C40.8961 38.6626 40.3649 39.0758 40.0894 39.7644C39.5582 41.063 39.1254 42.4009 38.5941 43.7191C37.5317 46.3359 36.1544 48.7166 34.0295 50.6251C32.3375 52.1401 30.37 53.0058 28.1073 53.2222C24.9593 53.537 21.9097 53.2222 18.9781 51.904C17.05 51.0382 15.594 49.779 14.8857 47.7722C14.2561 46.0211 13.6659 44.2504 13.2133 42.4403C12.7215 40.4334 12.0919 38.5446 10.5769 37.0493C10.3014 36.7738 10.1047 36.3016 10.085 35.9081C9.96695 34.9637 10.0063 34.039 10.0063 33.0946ZM45.9329 37.6592C45.9329 38.702 45.7952 39.607 45.9723 40.4334C46.2084 41.5352 46.6806 42.5977 47.0938 43.6601C48.7268 47.8312 51.7371 50.3496 56.0853 51.3924C59.9416 52.3171 63.2076 51.2743 65.9621 48.5395C67.123 47.3787 67.9296 45.9621 68.3231 44.3291C65.5293 44.1913 65.5293 44.2307 62.9715 42.637C60.6302 41.2007 58.3085 39.7054 56.0066 38.1904C55.4163 37.8166 54.8457 37.6395 54.1768 37.6395C52.0715 37.6592 49.986 37.6395 47.8808 37.6395C47.2905 37.6592 46.7003 37.6592 45.9329 37.6592ZM15.2202 44.4668C15.1808 44.5652 15.1612 44.6439 15.1612 44.6832C15.1808 44.7816 15.2005 44.88 15.2399 44.9587C16.4597 48.1854 18.683 50.3693 21.9884 51.294C25.8447 52.3958 29.3272 51.294 32.4358 48.9724C35.3084 46.8278 36.5676 43.6208 37.4923 40.3153C37.7284 39.4496 37.6497 38.5839 37.2759 37.6592C34.6198 37.6592 31.9636 37.6592 29.3075 37.6592C28.6976 37.6592 28.186 37.856 27.6548 38.1904C24.6642 40.0989 21.6736 41.9681 18.6633 43.8372C17.7386 44.4078 16.7548 44.7029 15.653 44.4865C15.535 44.4471 15.3579 44.4668 15.2202 44.4668ZM14.6299 42.3025C15.3382 41.4565 16.2039 41.0433 17.0893 40.6302C18.7223 39.8825 20.3554 39.1152 21.9884 38.3478C22.2442 38.2298 22.5 38.0724 22.7557 37.915C22.7361 37.856 22.6967 37.8166 22.677 37.7576C19.8832 37.7576 17.0893 37.7576 14.1184 37.7576C14.2955 39.3513 14.4529 40.8269 14.6299 42.3025ZM49.4744 33.7242C49.4744 33.7832 49.4941 33.8619 49.4941 33.921C55.0622 33.921 60.6302 33.921 66.2179 33.921C66.2179 33.8423 66.2179 33.7832 66.2179 33.7045C60.6499 32.0518 55.0622 31.9928 49.4744 33.7242ZM33.7934 33.9013C29.76 32.0322 19.5093 32.1109 17.168 33.9013C22.7164 33.9013 28.2451 33.9013 33.7934 33.9013ZM61.0237 37.7576C61.004 37.8166 60.9843 37.8756 60.9647 37.9543C61.8107 38.3478 62.6764 38.7217 63.5027 39.1545C65.2342 40.0792 67.241 40.5121 68.6379 42.0664C69.0905 40.5318 69.2675 38.7217 69.0905 37.7576C66.4147 37.7576 63.7192 37.7576 61.0237 37.7576Z" fill="#2C2C2C"/>
</svg>
