<svg width="25" height="24" viewBox="0 0 25 24" fill="none" xmlns="http://www.w3.org/2000/svg">
<path d="M7.92568 13.8084C7.73816 13.9959 7.48385 14.1012 7.21868 14.1012C6.95352 14.1012 6.69921 13.9959 6.51168 13.8084L1.56268 8.85845C1.33047 8.62629 1.14626 8.35067 1.02058 8.04731C0.894905 7.74395 0.830217 7.41881 0.830217 7.09045C0.830217 6.76209 0.894905 6.43694 1.02058 6.13359C1.14626 5.83023 1.33047 5.5546 1.56268 5.32245L6.51268 0.373448C6.70285 0.201021 6.95204 0.108325 7.20866 0.114552C7.46528 0.12078 7.70968 0.225453 7.89125 0.406901C8.07283 0.588349 8.17768 0.832674 8.18409 1.08929C8.19049 1.34591 8.09798 1.59516 7.92568 1.78545L3.62568 6.08545H19.8257C21.1518 6.08545 22.4235 6.61223 23.3612 7.54992C24.2989 8.4876 24.8257 9.75937 24.8257 11.0854V18.0854C24.8241 19.411 24.2968 20.6819 23.3595 21.6192C22.4221 22.5566 21.1513 23.0839 19.8257 23.0854H5.82568C5.56047 23.0854 5.30611 22.9801 5.11858 22.7926C4.93104 22.605 4.82568 22.3507 4.82568 22.0854C4.82568 21.8202 4.93104 21.5659 5.11858 21.3783C5.30611 21.1908 5.56047 21.0854 5.82568 21.0854H19.8257C20.6213 21.0854 21.3844 20.7694 21.947 20.2068C22.5096 19.6442 22.8257 18.8811 22.8257 18.0854V11.0854C22.8257 10.2898 22.5096 9.52674 21.947 8.96413C21.3844 8.40152 20.6213 8.08545 19.8257 8.08545H3.61368L7.92568 12.3945C8.11316 12.582 8.21847 12.8363 8.21847 13.1014C8.21847 13.3666 8.11316 13.6209 7.92568 13.8084Z" fill="white"/>
</svg>
