<svg width="39" height="39" viewBox="0 0 39 39" fill="none" xmlns="http://www.w3.org/2000/svg">
<g clip-path="url(#clip0_1_554)">
<path d="M22.8307 11.7191C22.8307 8.77959 21.663 5.9605 19.5845 3.88198C17.506 1.80345 14.6869 0.635742 11.7474 0.635742C8.80791 0.635742 5.98882 1.80345 3.9103 3.88198C1.83177 5.9605 0.664063 8.77959 0.664062 11.7191C0.664063 18.0065 4.23765 25.1537 9.19823 27.0537C8.855 27.6252 8.64401 28.2663 8.58073 28.9299C8.58073 31.4173 10.9383 32.5193 12.6594 33.3252C13.6094 33.7686 14.9141 34.3782 14.9141 34.85C14.7851 35.3417 14.5542 35.8007 14.2364 36.1974C14.1241 36.3725 14.0474 36.568 14.0107 36.7727C13.9739 36.9774 13.9779 37.1873 14.0223 37.3905C14.0667 37.5937 14.1507 37.7862 14.2695 37.9569C14.3882 38.1276 14.5395 38.2733 14.7146 38.3856C15.0681 38.6123 15.4973 38.6894 15.9077 38.5997C16.1109 38.5553 16.3033 38.4713 16.4741 38.3525C16.6448 38.2337 16.7904 38.0825 16.9027 37.9074C17.5748 37.0191 17.983 35.9595 18.0807 34.85C18.0807 32.3626 15.7231 31.2606 14.0021 30.4562C13.0521 30.0113 11.7474 29.4017 11.7331 29.0867C11.9739 28.5195 12.2754 27.9801 12.6325 27.478C18.4401 26.7212 22.8307 18.6857 22.8307 11.7191ZM15.1927 17.2132C15.9223 16.0272 16.3688 14.689 16.4974 13.3024C16.4974 12.8825 16.6642 12.4798 16.9611 12.1828C17.2581 11.8859 17.6608 11.7191 18.0807 11.7191C18.5007 11.7191 18.9034 11.8859 19.2003 12.1828C19.4972 12.4798 19.6641 12.8825 19.6641 13.3024C19.5346 15.2837 18.9207 17.2029 17.8765 18.8916C17.7663 19.0683 17.6223 19.2216 17.4529 19.3427C17.2835 19.4638 17.0918 19.5504 16.8889 19.5974C16.686 19.6445 16.4758 19.6511 16.2704 19.6169C16.0649 19.5828 15.8682 19.5084 15.6915 19.3982C15.5147 19.288 15.3614 19.1441 15.2403 18.9747C15.1192 18.8052 15.0327 18.6136 14.9856 18.4107C14.9386 18.2078 14.9319 17.9976 14.9661 17.7922C15.0003 17.5867 15.0746 17.39 15.1848 17.2132H15.1927ZM31.5391 30.0683C30.4592 29.4952 29.3446 28.9014 29.1894 28.2285C29.1166 27.9229 29.1498 27.2342 30.0048 25.8962C35.0224 25.1774 38.6641 18.092 38.6641 11.7191C38.7083 10.4596 38.4928 9.2045 38.0311 8.0319C37.5693 6.8593 36.8711 5.79428 35.98 4.90315C35.0889 4.01202 34.0238 3.31385 32.8512 2.85208C31.6786 2.39031 30.4235 2.17484 29.1641 2.21908C27.1934 2.19255 25.2611 2.76451 23.6224 3.85941C25.173 6.18719 25.9995 8.92211 25.9974 11.7191C25.9197 15.4868 24.9518 19.1826 23.1727 22.5047C24.0779 23.7463 25.274 24.7467 26.6561 25.4181C26.0716 26.496 25.8748 27.7418 26.0987 28.9473C26.5832 31.0215 28.5038 32.0427 30.0476 32.8645C31.0229 33.3838 32.1265 33.9728 32.2943 34.5555C32.3359 35.1656 32.1591 35.7706 31.7956 36.2623C31.69 36.4425 31.621 36.6417 31.5927 36.8486C31.5645 37.0555 31.5774 37.2659 31.6307 37.4678C31.6841 37.6697 31.7769 37.859 31.9037 38.0249C32.0306 38.1907 32.189 38.3299 32.3698 38.4343C32.5506 38.5387 32.7503 38.6063 32.9574 38.6332C33.1645 38.6601 33.3748 38.6458 33.5763 38.5911C33.7778 38.5364 33.9665 38.4424 34.1316 38.3144C34.2966 38.1865 34.4347 38.0272 34.5379 37.8457C34.9519 37.2455 35.2368 36.5659 35.3747 35.85C35.5126 35.134 35.5005 34.3973 35.3391 33.6862C34.9869 32.8553 34.4679 32.1055 33.8143 31.4832C33.1606 30.8609 32.3863 30.3793 31.5391 30.0683ZM31.0245 17.2132C31.7546 16.0273 32.2016 14.6891 32.3307 13.3024C32.3307 12.8825 32.4975 12.4798 32.7945 12.1828C33.0914 11.8859 33.4941 11.7191 33.9141 11.7191C34.334 11.7191 34.7367 11.8859 35.0336 12.1828C35.3306 12.4798 35.4974 12.8825 35.4974 13.3024C35.3679 15.2837 34.7541 17.2029 33.7098 18.8916C33.4873 19.2485 33.132 19.5024 32.7222 19.5974C32.3125 19.6925 31.8818 19.6208 31.5248 19.3982C31.1679 19.1757 30.914 18.8204 30.819 18.4107C30.7239 18.0009 30.7956 17.5702 31.0181 17.2132H31.0245Z" fill="#FF962C"/>
</g>
<defs>
<clipPath id="clip0_1_554">
<rect width="38" height="38" fill="white" transform="translate(0.664062 0.635742)"/>
</clipPath>
</defs>
</svg>
