<svg width="39" height="39" viewBox="0 0 39 39" fill="none" xmlns="http://www.w3.org/2000/svg">
<g clip-path="url(#clip0_1_551)">
<path d="M7.18415 5.28614C10.1933 2.73414 13.9253 1.18731 17.8574 0.862305V2.92064C17.9643 6.73437 19.2228 10.4265 21.4674 13.5116C21.6989 13.8471 21.8041 14.2538 21.7644 14.6596C21.7247 15.0653 21.5426 15.4439 21.2505 15.7282L20.6694 16.3093C20.343 16.6342 19.9012 16.8166 19.4407 16.8166C18.9802 16.8166 18.5385 16.6342 18.2121 16.3093L7.18415 5.28614ZM28.2916 13.1696C28.1055 13.3539 27.9634 13.5777 27.8759 13.8246C27.7883 14.0714 27.7576 14.3347 27.7859 14.5951C27.8142 14.8554 27.9008 15.106 28.0394 15.3283C28.1779 15.5505 28.3648 15.7386 28.5861 15.8786C30.9394 17.3233 33.6315 18.1233 36.3919 18.1982H38.36C38.035 14.2661 36.4882 10.5341 33.9362 7.52497L28.2916 13.1696ZM21.0241 0.862305V2.8763C21.1044 5.62094 21.9043 8.29633 23.3437 10.6346C23.4837 10.8557 23.6718 11.0423 23.8939 11.1807C24.1159 11.319 24.3664 11.4056 24.6265 11.4339C24.8866 11.4621 25.1498 11.4315 25.3964 11.3441C25.6431 11.2567 25.8668 11.1149 26.0512 10.9291L31.6973 5.28297C28.6879 2.73194 24.9559 1.1862 21.0241 0.862305ZM23.4893 17.9718L22.9082 18.5529C22.5834 18.8793 22.401 19.321 22.401 19.7816C22.401 20.2421 22.5834 20.6838 22.9082 21.0102L33.9362 32.0381C36.4883 29.0291 38.0352 25.2971 38.36 21.3649H36.346C32.5175 21.2641 28.8095 20.0055 25.7107 17.7549C25.3745 17.5228 24.967 17.4172 24.5603 17.4569C24.1537 17.4966 23.7743 17.679 23.4893 17.9718ZM15.3922 21.5913L15.9732 21.0102C16.2981 20.6838 16.4805 20.2421 16.4805 19.7816C16.4805 19.321 16.2981 18.8793 15.9732 18.5529L4.94532 7.52497C2.39314 10.534 0.846279 14.266 0.521484 18.1982H2.53548C6.36399 18.2988 10.0721 19.5575 13.1707 21.8082C13.5069 22.0404 13.9145 22.1459 14.3211 22.1062C14.7278 22.0665 15.1072 21.8841 15.3922 21.5913ZM18.2121 23.2491L17.631 23.8301C17.3394 24.1148 17.1577 24.4933 17.1181 24.8989C17.0784 25.3045 17.1832 25.711 17.4141 26.0468C19.6601 29.1323 20.9187 32.8259 21.0241 36.6409V38.6992C24.9563 38.3744 28.6883 36.8276 31.6973 34.2754L20.6694 23.2491C20.343 22.9242 19.9012 22.7418 19.4407 22.7418C18.9802 22.7418 18.5385 22.9242 18.2121 23.2491ZM17.8574 36.6868C17.7771 33.9422 16.9772 31.2668 15.5378 28.9285C15.3976 28.7076 15.2095 28.5211 14.9873 28.3829C14.7652 28.2446 14.5147 28.1583 14.2546 28.1301C13.9945 28.102 13.7314 28.1328 13.4848 28.2203C13.2382 28.3078 13.0145 28.4497 12.8303 28.6356L7.18415 34.277C10.1931 36.8291 13.9252 38.376 17.8574 38.7008V36.6868ZM2.48957 21.3649H0.521484C0.846488 25.297 2.39332 29.029 4.94532 32.0381L10.5899 26.3936C10.7759 26.2092 10.918 25.9854 11.0056 25.7386C11.0931 25.4917 11.1239 25.2284 11.0956 24.968C11.0673 24.7077 10.9807 24.4571 10.8421 24.2348C10.7036 24.0126 10.5167 23.8245 10.2954 23.6845C7.94204 22.2398 5.24996 21.4398 2.48957 21.3649Z" fill="#FF962C"/>
</g>
<defs>
<clipPath id="clip0_1_551">
<rect width="38" height="38" fill="white" transform="translate(0.440674 0.781738)"/>
</clipPath>
</defs>
</svg>
