<svg width="42" height="42" viewBox="0 0 42 42" fill="none" xmlns="http://www.w3.org/2000/svg">
<g clip-path="url(#clip0_1_557)">
<path d="M41.5522 39.4277C41.5522 39.8808 41.3723 40.3153 41.0519 40.6357C40.7315 40.956 40.297 41.136 39.8439 41.136H2.26058C1.8075 41.136 1.37298 40.956 1.05261 40.6357C0.732231 40.3153 0.552246 39.8808 0.552246 39.4277C0.552246 38.9746 0.732231 38.5401 1.05261 38.2197C1.37298 37.8993 1.8075 37.7193 2.26058 37.7193H39.8439C40.297 37.7193 40.7315 37.8993 41.0519 38.2197C41.3723 38.5401 41.5522 38.9746 41.5522 39.4277ZM6.9585 25.761C8.783 25.761 9.94808 24.6386 9.94808 24.0527C9.94808 23.5996 10.1281 23.1651 10.4484 22.8447C10.7688 22.5243 11.2033 22.3443 11.6564 22.3443C12.1095 22.3443 12.544 22.5243 12.8644 22.8447C13.1848 23.1651 13.3647 23.5996 13.3647 24.0527C13.3647 24.5754 14.494 25.761 16.3543 25.761C18.1788 25.761 19.3439 24.6386 19.3439 24.0527C19.3439 23.5996 19.5239 23.1651 19.8443 22.8447C20.1646 22.5243 20.5992 22.3443 21.0522 22.3443C21.5053 22.3443 21.9398 22.5243 22.2602 22.8447C22.5806 23.1651 22.7606 23.5996 22.7606 24.0527C22.7606 24.5754 23.8898 25.761 25.7502 25.761C27.5747 25.761 28.7397 24.6386 28.7397 24.0527C28.7397 23.5996 28.9197 23.1651 29.2401 22.8447C29.5605 22.5243 29.995 22.3443 30.4481 22.3443C30.9012 22.3443 31.3357 22.5243 31.6561 22.8447C31.9764 23.1651 32.1564 23.5996 32.1564 24.0527C32.1564 24.5754 33.2856 25.761 35.146 25.761C37.0064 25.761 38.1356 24.5754 38.1356 24.0527C38.1329 21.7881 37.2321 19.6171 35.6308 18.0158C34.0295 16.4145 31.8585 15.5137 29.5939 15.511H22.7606V11.78C23.7564 11.4279 24.6191 10.7768 25.2307 9.9157C25.8423 9.05458 26.1729 8.02554 26.1772 6.96934C25.8105 4.79292 24.8207 2.76947 23.3277 1.14392C23.0322 0.839597 22.6786 0.597667 22.2879 0.43246C21.8972 0.267253 21.4773 0.182129 21.0531 0.182129C20.6289 0.182129 20.209 0.267253 19.8183 0.43246C19.4276 0.597667 19.074 0.839597 18.7785 1.14392C17.2843 2.76888 16.2938 4.79252 15.9272 6.96934C15.9316 8.02554 16.2622 9.05458 16.8738 9.9157C17.4854 10.7768 18.3481 11.4279 19.3439 11.78V15.511H12.5106C10.246 15.5137 8.07499 16.4145 6.47371 18.0158C4.87242 19.6171 3.97163 21.7881 3.96891 24.0527C3.96891 24.5754 5.09812 25.761 6.9585 25.761ZM5.67725 34.3027H36.4272C36.8803 34.3027 37.3148 34.1227 37.6352 33.8023C37.9556 33.4819 38.1356 33.0474 38.1356 32.5943V28.5371C37.1941 28.9551 36.1761 29.1732 35.146 29.1777C33.4257 29.1907 31.7582 28.5843 30.4481 27.4693C29.1303 28.5678 27.4703 29.1715 25.7548 29.1762C24.0393 29.1809 22.376 28.5862 21.0522 27.495C19.7285 28.5862 18.0652 29.1809 16.3497 29.1762C14.6342 29.1715 12.9742 28.5678 11.6564 27.4693C10.3463 28.5843 8.67878 29.1907 6.9585 29.1777C5.92839 29.1732 4.9104 28.9551 3.96891 28.5371V32.5943C3.96891 33.0474 4.1489 33.4819 4.46927 33.8023C4.78965 34.1227 5.22417 34.3027 5.67725 34.3027Z" fill="#FF962C"/>
</g>
<defs>
<clipPath id="clip0_1_557">
<rect width="41" height="41" fill="white" transform="translate(0.552246 0.135742)"/>
</clipPath>
</defs>
</svg>
