<svg width="25" height="25" viewBox="0 0 25 25" fill="none" xmlns="http://www.w3.org/2000/svg">
<g clip-path="url(#clip0_1_1277)">
<path d="M18.5465 3.97852L17.1335 2.14652C16.852 1.78432 16.4918 1.49093 16.0802 1.28857C15.6685 1.08621 15.2162 0.980179 14.7575 0.978516L10.8935 0.978516C10.4348 0.980179 9.98248 1.08621 9.57083 1.28857C9.15917 1.49093 8.79896 1.78432 8.51749 2.14652L7.10449 3.97852H18.5465Z" fill="#CECECE"/>
<path d="M12.8258 18.9785C15.0349 18.9785 16.8258 17.1876 16.8258 14.9785C16.8258 12.7694 15.0349 10.9785 12.8258 10.9785C10.6167 10.9785 8.82581 12.7694 8.82581 14.9785C8.82581 17.1876 10.6167 18.9785 12.8258 18.9785Z" fill="#CECECE"/>
<path d="M19.8257 5.97852H5.82568C4.50009 5.9801 3.22924 6.5074 2.2919 7.44473C1.35457 8.38207 0.827271 9.65292 0.825684 10.9785L0.825684 19.9785C0.827271 21.3041 1.35457 22.5749 2.2919 23.5123C3.22924 24.4496 4.50009 24.9769 5.82568 24.9785H19.8257C21.1513 24.9769 22.4221 24.4496 23.3595 23.5123C24.2968 22.5749 24.8241 21.3041 24.8257 19.9785V10.9785C24.8241 9.65292 24.2968 8.38207 23.3595 7.44473C22.4221 6.5074 21.1513 5.9801 19.8257 5.97852ZM12.8257 20.9785C11.639 20.9785 10.479 20.6266 9.49226 19.9673C8.50557 19.308 7.73653 18.371 7.28241 17.2746C6.82828 16.1782 6.70946 14.9718 6.94097 13.808C7.17248 12.6441 7.74393 11.575 8.58304 10.7359C9.42216 9.89675 10.4913 9.32531 11.6551 9.0938C12.819 8.86229 14.0254 8.98111 15.1218 9.43523C16.2181 9.88936 17.1552 10.6584 17.8145 11.6451C18.4738 12.6318 18.8257 13.7918 18.8257 14.9785C18.8241 16.5693 18.1914 18.0945 17.0666 19.2194C15.9417 20.3443 14.4165 20.9769 12.8257 20.9785Z" fill="#CECECE"/>
</g>
<defs>
<clipPath id="clip0_1_1277">
<rect width="24" height="24" fill="white" transform="translate(0.825684 0.978516)"/>
</clipPath>
</defs>
</svg>
