<svg width="25" height="25" viewBox="0 0 25 25" fill="none" xmlns="http://www.w3.org/2000/svg">
<path d="M7.99238 6.31848V7.31848C8.34805 7.31848 8.67695 7.12957 8.85616 6.82235L7.99238 6.31848ZM9.67238 3.43848V2.43848C9.31671 2.43848 8.98781 2.62739 8.8086 2.93461L9.67238 3.43848ZM15.9124 3.43848L16.7762 2.93461C16.5969 2.62739 16.268 2.43848 15.9124 2.43848V3.43848ZM17.5924 6.31848L16.7286 6.82235C16.9078 7.12957 17.2367 7.31848 17.5924 7.31848V6.31848ZM4.19238 18.5585V8.71847H2.19238V18.5585H4.19238ZM5.59238 7.31848H7.99238V5.31848H5.59238V7.31848ZM8.85616 6.82235L10.5362 3.94235L8.8086 2.93461L7.1286 5.81461L8.85616 6.82235ZM9.67238 4.43848H15.9124V2.43848H9.67238V4.43848ZM15.0486 3.94235L16.7286 6.82235L18.4562 5.81461L16.7762 2.93461L15.0486 3.94235ZM17.5924 7.31848H19.9924V5.31848H17.5924V7.31848ZM21.3924 8.71848V18.5585H23.3924V8.71848H21.3924ZM21.3924 18.5585C21.3924 19.3317 20.7656 19.9585 19.9924 19.9585V21.9585C21.8701 21.9585 23.3924 20.4362 23.3924 18.5585H21.3924ZM19.9924 7.31848C20.7656 7.31848 21.3924 7.94528 21.3924 8.71848H23.3924C23.3924 6.84071 21.8701 5.31848 19.9924 5.31848V7.31848ZM4.19238 8.71847C4.19238 7.94528 4.81918 7.31848 5.59238 7.31848V5.31848C3.71462 5.31848 2.19238 6.84071 2.19238 8.71847H4.19238ZM5.59238 19.9585C4.81918 19.9585 4.19238 19.3317 4.19238 18.5585H2.19238C2.19238 20.4362 3.71461 21.9585 5.59238 21.9585V19.9585ZM15.3924 13.0385C15.3924 14.4744 14.2283 15.6385 12.7924 15.6385V17.6385C15.3329 17.6385 17.3924 15.579 17.3924 13.0385H15.3924ZM12.7924 15.6385C11.3564 15.6385 10.1924 14.4744 10.1924 13.0385H8.19238C8.19238 15.579 10.2519 17.6385 12.7924 17.6385V15.6385ZM10.1924 13.0385C10.1924 11.6025 11.3564 10.4385 12.7924 10.4385V8.43848C10.2519 8.43848 8.19238 10.498 8.19238 13.0385H10.1924ZM12.7924 10.4385C14.2283 10.4385 15.3924 11.6025 15.3924 13.0385H17.3924C17.3924 10.498 15.3329 8.43848 12.7924 8.43848V10.4385ZM19.9924 19.9585H5.59238V21.9585H19.9924V19.9585Z" fill="#2C2C2C"/>
</svg>
