<svg width="36" height="35" viewBox="0 0 36 35" fill="none" xmlns="http://www.w3.org/2000/svg">
<path d="M1.14416 16.7559C1.18673 16.6194 1.20582 16.477 1.25427 16.3419L5.21542 5.43774C5.73271 4.02285 6.6718 2.80082 7.90584 1.93674C9.13987 1.07265 10.6094 0.60814 12.1159 0.605957H24.4486C25.9553 0.60804 27.425 1.07268 28.6591 1.93707C29.8932 2.80147 30.8322 4.02393 31.349 5.43921L35.3131 16.3419C35.3616 16.477 35.3807 16.6194 35.4232 16.7559H1.14416ZM30.0277 19.6923V22.6287C30.0277 23.018 29.873 23.3915 29.5976 23.6668C29.3223 23.9422 28.9489 24.0968 28.5595 24.0968C28.1701 24.0968 27.7967 23.9422 27.5213 23.6668C27.246 23.3915 27.0913 23.018 27.0913 22.6287V19.6923H9.47314V22.6287C9.47314 23.018 9.31846 23.3915 9.04312 23.6668C8.76779 23.9422 8.39435 24.0968 8.00496 24.0968C7.61558 24.0968 7.24214 23.9422 6.9668 23.6668C6.69147 23.3915 6.53678 23.018 6.53678 22.6287V19.6923H0.664062V22.6287C0.665939 24.0554 1.08353 25.4507 1.86577 26.6438C2.648 27.837 3.76098 28.7764 5.0686 29.3471V31.4377C5.0686 32.2165 5.37797 32.9634 5.92864 33.5141C6.47932 34.0647 7.22619 34.3741 8.00496 34.3741C8.78374 34.3741 9.53061 34.0647 10.0813 33.5141C10.632 32.9634 10.9413 32.2165 10.9413 31.4377V29.9696H25.6231V31.4377C25.6231 32.2165 25.9325 32.9634 26.4832 33.5141C27.0338 34.0647 27.7807 34.3741 28.5595 34.3741C29.3383 34.3741 30.0851 34.0647 30.6358 33.5141C31.1865 32.9634 31.4958 32.2165 31.4958 31.4377V29.3471C32.8035 28.7764 33.9165 27.837 34.6987 26.6438C35.4809 25.4507 35.8985 24.0554 35.9004 22.6287V19.6923H30.0277Z" fill="#FF962C"/>
</svg>
