<svg width="25" height="25" viewBox="0 0 25 25" fill="none" xmlns="http://www.w3.org/2000/svg">
<path d="M8.93877 18.604H3.23877C1.74577 18.604 0.23877 17.47 0.23877 14.938V9.89802C0.259797 7.60019 1.1202 5.38933 2.65795 3.68176C4.1957 1.97419 6.30468 0.887747 8.58777 0.627015C9.87613 0.533489 11.1695 0.718396 12.3801 1.16917C13.5906 1.61995 14.6899 2.32603 15.6034 3.23943C16.5168 4.15284 17.2228 5.25217 17.6736 6.46271C18.1244 7.67326 18.3093 8.96666 18.2158 10.255C17.9547 12.539 16.8673 14.6487 15.1586 16.1866C13.4498 17.7244 11.2376 18.5842 8.93877 18.604ZM20.2388 9.68402H20.2268C20.2268 9.92102 20.2268 10.158 20.2148 10.396C19.8288 15.804 14.8858 20.382 9.32277 20.585V20.6C10.0234 21.8151 11.0311 22.8247 12.245 23.5274C13.4589 24.2302 14.8362 24.6015 16.2388 24.604H21.2388C22.0344 24.604 22.7975 24.2879 23.3601 23.7253C23.9227 23.1627 24.2388 22.3997 24.2388 21.604V16.604C24.2373 15.2011 23.867 13.8233 23.1649 12.6087C22.4628 11.3941 21.4537 10.3855 20.2388 9.68402Z" fill="#CECECE"/>
</svg>
