<svg width="40" height="40" viewBox="0 0 40 40" fill="none" xmlns="http://www.w3.org/2000/svg">
<g clip-path="url(#clip0_1_545)">
<path d="M8.78906 23.0318C9.68652 23.0318 10.4141 22.3042 10.4141 21.4067C10.4141 20.5093 9.68652 19.7817 8.78906 19.7817C7.8916 19.7817 7.16406 20.5093 7.16406 21.4067C7.16406 22.3042 7.8916 23.0318 8.78906 23.0318Z" fill="#FF962C"/>
<path d="M2.28906 16.5317C3.18653 16.5317 3.91406 15.8042 3.91406 14.9067C3.91406 14.0093 3.18653 13.2817 2.28906 13.2817C1.3916 13.2817 0.664062 14.0093 0.664062 14.9067C0.664062 15.8042 1.3916 16.5317 2.28906 16.5317Z" fill="#FF962C"/>
<path d="M8.78906 10.0312C9.68652 10.0312 10.4141 9.30371 10.4141 8.40625C10.4141 7.50879 9.68652 6.78125 8.78906 6.78125C7.8916 6.78125 7.16406 7.50879 7.16406 8.40625C7.16406 9.30371 7.8916 10.0312 8.78906 10.0312Z" fill="#FF962C"/>
<path d="M2.28906 3.53174C3.18653 3.53174 3.91406 2.8042 3.91406 1.90674C3.91406 1.00928 3.18653 0.281738 2.28906 0.281738C1.3916 0.281738 0.664062 1.00928 0.664062 1.90674C0.664062 2.8042 1.3916 3.53174 2.28906 3.53174Z" fill="#FF962C"/>
<path d="M38.0393 23.0318C38.9368 23.0318 39.6643 22.3042 39.6643 21.4067C39.6643 20.5093 38.9368 19.7817 38.0393 19.7817C37.1418 19.7817 36.4143 20.5093 36.4143 21.4067C36.4143 22.3042 37.1418 23.0318 38.0393 23.0318Z" fill="#FF962C"/>
<path d="M31.5391 16.5317C32.4365 16.5317 33.1641 15.8042 33.1641 14.9067C33.1641 14.0093 32.4365 13.2817 31.5391 13.2817C30.6416 13.2817 29.9141 14.0093 29.9141 14.9067C29.9141 15.8042 30.6416 16.5317 31.5391 16.5317Z" fill="#FF962C"/>
<path d="M38.0393 10.0312C38.9368 10.0312 39.6643 9.30371 39.6643 8.40625C39.6643 7.50879 38.9368 6.78125 38.0393 6.78125C37.1418 6.78125 36.4143 7.50879 36.4143 8.40625C36.4143 9.30371 37.1418 10.0312 38.0393 10.0312Z" fill="#FF962C"/>
<path d="M31.5391 3.53174C32.4365 3.53174 33.1641 2.8042 33.1641 1.90674C33.1641 1.00928 32.4365 0.281738 31.5391 0.281738C30.6416 0.281738 29.9141 1.00928 29.9141 1.90674C29.9141 2.8042 30.6416 3.53174 31.5391 3.53174Z" fill="#FF962C"/>
<path d="M23.4143 39.2817C24.3118 39.2817 25.0393 38.5542 25.0393 37.6567C25.0393 36.7593 24.3118 36.0317 23.4143 36.0317C22.5168 36.0317 21.7893 36.7593 21.7893 37.6567C21.7893 38.5542 22.5168 39.2817 23.4143 39.2817Z" fill="#FF962C"/>
<path d="M16.9141 32.7818C17.8115 32.7818 18.5391 32.0542 18.5391 31.1567C18.5391 30.2593 17.8115 29.5317 16.9141 29.5317C16.0166 29.5317 15.2891 30.2593 15.2891 31.1567C15.2891 32.0542 16.0166 32.7818 16.9141 32.7818Z" fill="#FF962C"/>
<path d="M23.4143 26.2818C24.3118 26.2818 25.0393 25.5542 25.0393 24.6567C25.0393 23.7593 24.3118 23.0317 23.4143 23.0317C22.5168 23.0317 21.7893 23.7593 21.7893 24.6567C21.7893 25.5542 22.5168 26.2818 23.4143 26.2818Z" fill="#FF962C"/>
<path d="M16.9141 19.7813C17.8115 19.7813 18.5391 19.0537 18.5391 18.1563C18.5391 17.2588 17.8115 16.5312 16.9141 16.5312C16.0166 16.5312 15.2891 17.2588 15.2891 18.1563C15.2891 19.0537 16.0166 19.7813 16.9141 19.7813Z" fill="#FF962C"/>
<path d="M25.0388 5.15674C24.1768 5.15674 23.3502 4.81433 22.7407 4.20484C22.1312 3.59534 21.7888 2.76869 21.7888 1.90674C21.7888 1.47576 21.6176 1.06244 21.3129 0.75769C21.0081 0.452943 20.5948 0.281738 20.1638 0.281738C19.7328 0.281738 19.3195 0.452943 19.0148 0.75769C18.71 1.06244 18.5388 1.47576 18.5388 1.90674C18.5388 2.76869 18.1964 3.59534 17.5869 4.20484C16.9774 4.81433 16.1508 5.15674 15.2888 5.15674C14.8578 5.15674 14.4445 5.32794 14.1398 5.63269C13.835 5.93744 13.6638 6.35076 13.6638 6.78174C13.6638 7.21272 13.835 7.62604 14.1398 7.93079C14.4445 8.23553 14.8578 8.40674 15.2888 8.40674C16.1508 8.40674 16.9774 8.74915 17.5869 9.35864C18.1964 9.96813 18.5388 10.7948 18.5388 11.6567C18.5388 12.0877 18.71 12.501 19.0148 12.8058C19.3195 13.1105 19.7328 13.2817 20.1638 13.2817C20.5948 13.2817 21.0081 13.1105 21.3129 12.8058C21.6176 12.501 21.7888 12.0877 21.7888 11.6567C21.7888 10.7948 22.1312 9.96813 22.7407 9.35864C23.3502 8.74915 24.1768 8.40674 25.0388 8.40674C25.4698 8.40674 25.8831 8.23553 26.1878 7.93079C26.4926 7.62604 26.6638 7.21272 26.6638 6.78174C26.6638 6.35076 26.4926 5.93744 26.1878 5.63269C25.8831 5.32794 25.4698 5.15674 25.0388 5.15674Z" fill="#FF962C"/>
<path d="M12.0391 31.1567C11.1771 31.1567 10.3505 30.8143 9.74096 30.2048C9.13147 29.5953 8.78906 28.7687 8.78906 27.9067C8.78906 27.4758 8.61786 27.0624 8.31311 26.7577C8.00836 26.4529 7.59504 26.2817 7.16406 26.2817C6.73309 26.2817 6.31976 26.4529 6.01501 26.7577C5.71027 27.0624 5.53906 27.4758 5.53906 27.9067C5.53906 28.7687 5.19665 29.5953 4.58716 30.2048C3.97767 30.8143 3.15102 31.1567 2.28906 31.1567C1.85809 31.1567 1.44476 31.3279 1.14001 31.6327C0.835267 31.9374 0.664063 32.3508 0.664062 32.7817C0.664063 33.2127 0.835267 33.626 1.14001 33.9308C1.44476 34.2355 1.85809 34.4067 2.28906 34.4067C3.15102 34.4067 3.97767 34.7491 4.58716 35.3586C5.19665 35.9681 5.53906 36.7948 5.53906 37.6567C5.53906 38.0877 5.71027 38.501 6.01501 38.8058C6.31976 39.1105 6.73309 39.2817 7.16406 39.2817C7.59504 39.2817 8.00836 39.1105 8.31311 38.8058C8.61786 38.501 8.78906 38.0877 8.78906 37.6567C8.78906 36.7948 9.13147 35.9681 9.74096 35.3586C10.3505 34.7491 11.1771 34.4067 12.0391 34.4067C12.47 34.4067 12.8834 34.2355 13.1881 33.9308C13.4929 33.626 13.6641 33.2127 13.6641 32.7817C13.6641 32.3508 13.4929 31.9374 13.1881 31.6327C12.8834 31.3279 12.47 31.1567 12.0391 31.1567Z" fill="#FF962C"/>
<path d="M38.0393 31.1567C37.1773 31.1567 36.3507 30.8143 35.7412 30.2048C35.1317 29.5953 34.7893 28.7687 34.7893 27.9067C34.7893 27.4758 34.6181 27.0624 34.3133 26.7577C34.0086 26.4529 33.5953 26.2817 33.1643 26.2817C32.7333 26.2817 32.32 26.4529 32.0152 26.7577C31.7105 27.0624 31.5393 27.4758 31.5393 27.9067C31.5393 28.7687 31.1969 29.5953 30.5874 30.2048C29.9779 30.8143 29.1513 31.1567 28.2893 31.1567C27.8583 31.1567 27.445 31.3279 27.1403 31.6327C26.8355 31.9374 26.6643 32.3508 26.6643 32.7817C26.6643 33.2127 26.8355 33.626 27.1403 33.9308C27.445 34.2355 27.8583 34.4067 28.2893 34.4067C29.1513 34.4067 29.9779 34.7491 30.5874 35.3586C31.1969 35.9681 31.5393 36.7948 31.5393 37.6567C31.5393 38.0877 31.7105 38.501 32.0152 38.8058C32.32 39.1105 32.7333 39.2817 33.1643 39.2817C33.5953 39.2817 34.0086 39.1105 34.3133 38.8058C34.6181 38.501 34.7893 38.0877 34.7893 37.6567C34.7893 36.7948 35.1317 35.9681 35.7412 35.3586C36.3507 34.7491 37.1773 34.4067 38.0393 34.4067C38.4703 34.4067 38.8836 34.2355 39.1883 33.9308C39.4931 33.626 39.6643 33.2127 39.6643 32.7817C39.6643 32.3508 39.4931 31.9374 39.1883 31.6327C38.8836 31.3279 38.4703 31.1567 38.0393 31.1567Z" fill="#FF962C"/>
</g>
<defs>
<clipPath id="clip0_1_545">
<rect width="39" height="39" fill="white" transform="translate(0.664062 0.281738)"/>
</clipPath>
</defs>
</svg>
