<svg width="37" height="37" viewBox="0 0 37 37" fill="none" xmlns="http://www.w3.org/2000/svg">
<g clip-path="url(#clip0_1_542)">
<path d="M7.94072 33.9268C8.73637 33.9268 9.49943 33.6107 10.062 33.0481C10.6247 32.4855 10.9407 31.7224 10.9407 30.9268V21.9268C10.9407 21.1311 10.6247 20.368 10.062 19.8054C9.49943 19.2428 8.73637 18.9268 7.94072 18.9268V17.4268C7.94072 14.642 9.04697 11.9713 11.0161 10.0021C12.9852 8.033 15.6559 6.92676 18.4407 6.92676C21.2255 6.92676 23.8962 8.033 25.8653 10.0021C27.8345 11.9713 28.9407 14.642 28.9407 17.4268V18.9268C28.1451 18.9268 27.382 19.2428 26.8194 19.8054C26.2568 20.368 25.9407 21.1311 25.9407 21.9268V30.9268H21.4407C21.0429 30.9268 20.6614 31.0848 20.3801 31.3661C20.0988 31.6474 19.9407 32.0289 19.9407 32.4268C19.9407 32.8246 20.0988 33.2061 20.3801 33.4874C20.6614 33.7687 21.0429 33.9268 21.4407 33.9268H28.9407C30.6597 33.9216 32.3248 33.3261 33.6572 32.2399C34.9896 31.1538 35.9084 29.6428 36.2599 27.9601C36.6113 26.2774 36.3741 24.525 35.5878 22.9964C34.8015 21.4677 33.514 20.2555 31.9407 19.5628V17.4268C31.9407 13.8463 30.5184 10.4126 27.9867 7.88082C25.4549 5.34908 22.0211 3.92676 18.4407 3.92676C14.8603 3.92676 11.4265 5.34908 8.89478 7.88082C6.36304 10.4126 4.94072 13.8463 4.94072 17.4268V19.5628C3.36746 20.2555 2.07992 21.4677 1.29365 22.9964C0.507386 24.525 0.270113 26.2774 0.621558 27.9601C0.973003 29.6428 1.89183 31.1538 3.22423 32.2399C4.55662 33.3261 6.2217 33.9216 7.94072 33.9268Z" fill="#FF962C"/>
</g>
<defs>
<clipPath id="clip0_1_542">
<rect width="36" height="36" fill="white" transform="translate(0.440674 0.927246)"/>
</clipPath>
</defs>
</svg>
