<svg width="45" height="39" viewBox="0 0 45 39" fill="none" xmlns="http://www.w3.org/2000/svg">
<path d="M32.3154 0.319824C30.2545 0.35188 28.2385 0.927186 26.4711 1.98764C24.7037 3.0481 23.2474 4.55616 22.2492 6.35952C21.2511 4.55616 19.7948 3.0481 18.0274 1.98764C16.2599 0.927186 14.244 0.35188 12.1831 0.319824C8.89773 0.462564 5.80241 1.89976 3.57335 4.31743C1.3443 6.7351 0.162694 9.93671 0.286692 13.2228C0.286692 21.5448 9.04608 30.6336 16.3925 36.7959C18.0328 38.1743 20.1067 38.93 22.2492 38.93C24.3918 38.93 26.4656 38.1743 28.1059 36.7959C35.4524 30.6336 44.2118 21.5448 44.2118 13.2228C44.3358 9.93671 43.1542 6.7351 40.9251 4.31743C38.696 1.89976 35.6007 0.462564 32.3154 0.319824Z" fill="#FF2C2C"/>
</svg>
