<svg width="22" height="19" viewBox="0 0 22 19" fill="none" xmlns="http://www.w3.org/2000/svg">
<path d="M10.2899 3.8122L11.1648 5.39298L12.0398 3.8122C12.4181 3.12867 12.9701 2.55706 13.64 2.15511C14.3015 1.7582 15.0549 1.5406 15.8258 1.5235C17.0765 1.5856 18.2535 2.13617 19.1029 3.05743C19.9589 3.98596 20.4127 5.21556 20.3651 6.4776L20.3644 6.49645V6.51531C20.3644 8.11861 19.5067 9.92251 18.1083 11.7594C16.7279 13.5727 14.9199 15.2893 13.2421 16.6967L13.2414 16.6973C12.6598 17.186 11.9245 17.4539 11.1648 17.4539C10.4052 17.4539 9.66989 17.186 9.08831 16.6973L9.08763 16.6967C7.40978 15.2893 5.60181 13.5727 4.22139 11.7594C2.82295 9.92251 1.9653 8.11861 1.9653 6.51531V6.49645L1.96459 6.4776C1.91696 5.21555 2.37076 3.98595 3.22685 3.05743C4.07624 2.13617 5.25315 1.5856 6.5039 1.5235C7.27482 1.5406 8.02818 1.7582 8.68969 2.15511L9.20419 1.29762L8.68969 2.15511C9.35961 2.55706 9.9116 3.12867 10.2899 3.8122Z" stroke="#FF962C" stroke-width="2"/>
</svg>
