<svg width="48" height="47" viewBox="0 0 48 47" fill="none" xmlns="http://www.w3.org/2000/svg">
<g clip-path="url(#clip0_1_569)">
<path d="M45.4823 43.0736H10.2323C8.67419 43.0736 7.17986 42.4546 6.07809 41.3528C4.97631 40.251 4.35734 38.7567 4.35734 37.1986V1.94857C4.35734 1.42919 4.15102 0.931076 3.78376 0.563817C3.4165 0.196558 2.91839 -0.00976562 2.39901 -0.00976562C1.87962 -0.00976562 1.38152 0.196558 1.01426 0.563817C0.646998 0.931076 0.440674 1.42919 0.440674 1.94857L0.440674 37.1986C0.443783 39.7945 1.4764 42.2833 3.31202 44.1189C5.14764 45.9545 7.63638 46.9871 10.2323 46.9902H45.4823C46.0017 46.9902 46.4998 46.7839 46.8671 46.4167C47.2344 46.0494 47.4407 45.5513 47.4407 45.0319C47.4407 44.5125 47.2344 44.0144 46.8671 43.6471C46.4998 43.2799 46.0017 43.0736 45.4823 43.0736Z" fill="#FF962C"/>
<path d="M12.191 39.1567C12.7104 39.1567 13.2085 38.9504 13.5757 38.5832C13.943 38.2159 14.1493 37.7178 14.1493 37.1984V23.4901C14.1493 22.9707 13.943 22.4726 13.5757 22.1053C13.2085 21.7381 12.7104 21.5317 12.191 21.5317C11.6716 21.5317 11.1735 21.7381 10.8062 22.1053C10.439 22.4726 10.2327 22.9707 10.2327 23.4901V37.1984C10.2327 37.7178 10.439 38.2159 10.8062 38.5832C11.1735 38.9504 11.6716 39.1567 12.191 39.1567Z" fill="#FF962C"/>
<path d="M20.0237 19.5736V37.1985C20.0237 37.7179 20.23 38.216 20.5973 38.5833C20.9645 38.9506 21.4626 39.1569 21.982 39.1569C22.5014 39.1569 22.9995 38.9506 23.3668 38.5833C23.734 38.216 23.9404 37.7179 23.9404 37.1985V19.5736C23.9404 19.0542 23.734 18.5561 23.3668 18.1888C22.9995 17.8216 22.5014 17.6152 21.982 17.6152C21.4626 17.6152 20.9645 17.8216 20.5973 18.1888C20.23 18.5561 20.0237 19.0542 20.0237 19.5736Z" fill="#FF962C"/>
<path d="M29.8157 25.4486V37.1985C29.8157 37.7179 30.022 38.216 30.3893 38.5833C30.7565 38.9506 31.2546 39.1569 31.774 39.1569C32.2934 39.1569 32.7915 38.9506 33.1588 38.5833C33.526 38.216 33.7324 37.7179 33.7324 37.1985V25.4486C33.7324 24.9292 33.526 24.4311 33.1588 24.0638C32.7915 23.6966 32.2934 23.4902 31.774 23.4902C31.2546 23.4902 30.7565 23.6966 30.3893 24.0638C30.022 24.4311 29.8157 24.9292 29.8157 25.4486Z" fill="#FF962C"/>
<path d="M39.6077 17.6151V37.1984C39.6077 37.7178 39.814 38.2159 40.1813 38.5832C40.5485 38.9504 41.0466 39.1567 41.566 39.1567C42.0854 39.1567 42.5835 38.9504 42.9508 38.5832C43.318 38.2159 43.5244 37.7178 43.5244 37.1984V17.6151C43.5244 17.0957 43.318 16.5976 42.9508 16.2303C42.5835 15.8631 42.0854 15.6567 41.566 15.6567C41.0466 15.6567 40.5485 15.8631 40.1813 16.2303C39.814 16.5976 39.6077 17.0957 39.6077 17.6151Z" fill="#FF962C"/>
<path d="M12.1903 17.6151C12.7097 17.615 13.2077 17.4086 13.5749 17.0413L20.5975 10.0187C20.9707 9.66314 21.4665 9.46479 21.982 9.46479C22.4975 9.46479 22.9933 9.66314 23.3665 10.0187L27.62 14.2722C28.7218 15.3736 30.2158 15.9923 31.7737 15.9923C33.3315 15.9923 34.8256 15.3736 35.9273 14.2722L46.8665 3.33297C47.2233 2.96363 47.4207 2.46895 47.4162 1.95548C47.4117 1.44201 47.2058 0.950834 46.8427 0.587743C46.4796 0.224652 45.9884 0.0186961 45.475 0.0142342C44.9615 0.00977228 44.4668 0.207161 44.0975 0.563888L33.1582 11.5012C32.791 11.8683 32.293 12.0746 31.7737 12.0746C31.2544 12.0746 30.7564 11.8683 30.3891 11.5012L26.1356 7.24964C25.0339 6.14825 23.5398 5.52952 21.982 5.52952C20.4242 5.52952 18.9301 6.14825 17.8284 7.24964L10.8058 14.2722C10.532 14.5461 10.3456 14.895 10.27 15.2748C10.1945 15.6547 10.2333 16.0483 10.3815 16.4061C10.5297 16.7639 10.7806 17.0697 11.1026 17.2849C11.4245 17.5001 11.8031 17.615 12.1903 17.6151Z" fill="#FF962C"/>
</g>
<defs>
<clipPath id="clip0_1_569">
<rect width="47" height="47" fill="white" transform="translate(0.440674 -0.00976562)"/>
</clipPath>
</defs>
</svg>
