<svg width="42" height="42" viewBox="0 0 42 42" fill="none" xmlns="http://www.w3.org/2000/svg">
<path d="M22.8644 1.41235C22.237 0.840717 21.4227 0.524414 20.5786 0.524414C19.7345 0.524414 18.9203 0.840717 18.2929 1.41235L0.0786133 18.0064V35.9908C0.0786133 37.4584 0.654564 38.8659 1.67976 39.9036C2.70496 40.9414 4.09543 41.5244 5.54528 41.5244H12.0369V29.3694C12.0369 27.0763 12.9369 24.877 14.5387 23.2555C16.1406 21.634 18.3132 20.7231 20.5786 20.7231C22.844 20.7231 25.0166 21.634 26.6185 23.2555C28.2204 24.877 29.1203 27.0763 29.1203 29.3694V41.5192H35.6119C37.0618 41.5192 38.4523 40.9362 39.4775 39.8985C40.5027 38.8607 41.0786 37.4532 41.0786 35.9856V18.0012L22.8644 1.41235Z" fill="white"/>
</svg>
