<svg width="50" height="18" viewBox="0 0 50 18" fill="none" xmlns="http://www.w3.org/2000/svg">
<path d="M0.142874 1.90728C1.39192 1.66055 2.61013 1.46008 3.81292 1.1671C6.88156 0.426922 9.98105 0.118516 13.1422 0.334401C15.4861 0.504025 17.7837 0.874112 20.0505 1.44467C22.4098 2.03064 24.7846 2.44699 27.221 1.9998C28.7322 1.70681 30.228 1.35214 31.7392 1.04374C36.319 0.0876741 40.8988 -0.066528 45.4941 1.02832C46.8974 1.35214 48.3006 1.59887 49.7655 1.90728C49.7655 2.70913 49.7964 3.49557 49.7501 4.29743C49.7347 4.52873 49.5959 4.8063 49.4263 4.97592C48.1464 6.19413 47.7146 7.78242 47.2829 9.41698C46.9128 10.8511 46.4193 12.2697 45.9104 13.6576C45.4324 14.9375 44.4918 15.8164 43.2582 16.4178C40.1278 17.929 36.905 18.2066 33.605 17.1734C31.4924 16.5103 30.0892 14.922 28.9327 13.1179C28.0074 11.6838 27.3598 10.1263 26.8201 8.50718C26.6659 8.04457 26.5117 7.58196 26.2958 7.15019C26.0336 6.61048 25.6019 6.27123 24.9696 6.27123C24.3528 6.27123 23.9365 6.59506 23.7206 7.13477C23.3042 8.15251 22.965 9.20109 22.5486 10.2343C21.7159 12.2852 20.6365 14.151 18.9711 15.6468C17.645 16.8342 16.1029 17.5127 14.3296 17.6823C11.8623 17.929 9.47218 17.6823 7.17455 16.6491C5.66336 15.9706 4.52225 14.9837 3.96712 13.4108C3.47367 12.0384 3.01106 10.6506 2.65639 9.23193C2.27088 7.65906 1.77743 6.17871 0.590063 5.00676C0.374178 4.79088 0.219975 4.42079 0.204555 4.11238C0.112033 3.37221 0.142874 2.64745 0.142874 1.90728ZM28.3004 5.48479C28.3004 6.30207 28.1925 7.01141 28.3313 7.65906C28.5163 8.5226 28.8864 9.3553 29.2102 10.188C30.4901 13.4571 32.8494 15.4309 36.2573 16.2482C39.2797 16.9729 41.8395 16.1557 43.9983 14.0122C44.9081 13.1024 45.5404 11.9922 45.8488 10.7123C43.6591 10.6043 43.6591 10.6352 41.6544 9.38614C39.8194 8.26045 37.9998 7.08851 36.1956 5.90114C35.733 5.60816 35.2858 5.46937 34.7615 5.46937C33.1116 5.48479 31.477 5.46937 29.827 5.46937C29.3644 5.48479 28.9018 5.48479 28.3004 5.48479ZM4.22926 10.8202C4.19842 10.8973 4.183 10.959 4.183 10.9899C4.19842 11.067 4.21385 11.1441 4.24469 11.2057C5.20075 13.7347 6.94324 15.4463 9.53386 16.1711C12.5562 17.0346 15.2857 16.1711 17.7221 14.3515C19.9734 12.6707 20.9603 10.1572 21.6851 7.56654C21.8701 6.88804 21.8085 6.20955 21.5155 5.48479C19.4337 5.48479 17.352 5.48479 15.2702 5.48479C14.7922 5.48479 14.3913 5.639 13.9749 5.90114C11.631 7.39692 9.28714 8.86185 6.92782 10.3268C6.20307 10.774 5.43205 11.0053 4.56851 10.8357C4.47599 10.8048 4.33721 10.8202 4.22926 10.8202ZM3.76665 9.124C4.32179 8.46092 5.00028 8.13709 5.6942 7.81327C6.97409 7.22729 8.25397 6.6259 9.53386 6.02451C9.73433 5.93198 9.93479 5.80862 10.1353 5.68526C10.1198 5.639 10.089 5.60816 10.0736 5.5619C7.88389 5.5619 5.6942 5.5619 3.36572 5.5619C3.50451 6.81094 3.62787 7.96747 3.76665 9.124ZM31.0761 2.40073C31.0761 2.44699 31.0915 2.50867 31.0915 2.55493C35.4555 2.55493 39.8194 2.55493 44.1988 2.55493C44.1988 2.49325 44.1988 2.44699 44.1988 2.3853C39.8348 1.09 35.4555 1.04374 31.0761 2.40073ZM18.7861 2.53951C15.6249 1.07458 7.5909 1.13626 5.75588 2.53951C10.1044 2.53951 14.4375 2.53951 18.7861 2.53951ZM40.1278 5.5619C40.1124 5.60816 40.097 5.65442 40.0816 5.7161C40.7446 6.02451 41.4231 6.31749 42.0708 6.65674C43.4278 7.3815 45.0006 7.72074 46.0955 8.93895C46.4502 7.73616 46.5889 6.31749 46.4502 5.5619C44.353 5.5619 42.2404 5.5619 40.1278 5.5619Z" fill="white"/>
</svg>
