<svg width="30" height="30" viewBox="0 0 30 30" fill="none" xmlns="http://www.w3.org/2000/svg">
<path d="M8.70218 29.6553C8.48087 29.6177 8.26198 29.5671 8.04666 29.5036L4.47797 28.3841C3.18746 28.005 2.05413 27.2187 1.2471 26.1427C0.440075 25.0667 0.00261413 23.7585 0 22.4135V7.39735C0.00129342 6.37494 0.254624 5.36861 0.737569 4.46745C1.22051 3.56628 1.91818 2.79808 2.7688 2.23083C3.61943 1.66358 4.59678 1.31479 5.61434 1.21532C6.63191 1.11586 7.6583 1.26879 8.60267 1.66058L8.70218 1.7066V29.6553ZM25.7185 1.38568L25.6923 1.37698L22.3152 0.257483C21.9331 0.133568 21.5399 0.0473298 21.141 0V27.6913L23.6959 28.4276C24.428 28.6058 25.191 28.6154 25.9273 28.4557C26.6636 28.296 27.3541 27.9711 27.9465 27.5057C28.539 27.0402 29.018 26.4462 29.3474 25.7686C29.6768 25.091 29.848 24.3474 29.8481 23.5939V7.24311C29.8463 5.96047 29.4486 4.70965 28.7096 3.66136C27.9705 2.61306 26.9259 1.81835 25.7185 1.38568ZM18.6532 0.170412C18.6532 0.170412 11.3852 2.25142 11.1899 2.27257V29.6379C11.3143 29.6118 18.6532 27.6029 18.6532 27.6029V0.170412Z" fill="#CECECE"/>
</svg>
