<svg width="42" height="42" viewBox="0 0 42 42" fill="none" xmlns="http://www.w3.org/2000/svg">
<path d="M39.4295 27.8989C39.1646 27.8989 38.9034 27.8374 38.6664 27.7193L35.2446 26.0084C34.8385 25.8055 34.5296 25.4497 34.3858 25.0191C34.2421 24.5885 34.2753 24.1184 34.4781 23.7123C34.6809 23.3062 35.0368 22.9973 35.4674 22.8536C35.898 22.7098 36.368 22.743 36.7741 22.9458L40.1959 24.6567C40.5413 24.8289 40.8184 25.1127 40.9821 25.4621C41.1458 25.8116 41.1866 26.2061 41.0978 26.5816C41.009 26.9572 40.7959 27.2917 40.493 27.5308C40.1902 27.7699 39.8153 27.8997 39.4295 27.8989ZM36.7724 12.3297L40.1942 10.6188C40.6004 10.4159 40.9093 10.0601 41.053 9.62949C41.1967 9.1989 41.1636 8.72884 40.9607 8.32273C40.7579 7.91661 40.402 7.6077 39.9715 7.46396C39.5409 7.32021 39.0708 7.35341 38.6647 7.55624L35.2429 9.26715C34.8368 9.46998 34.5279 9.82583 34.3841 10.2564C34.2404 10.687 34.2736 11.1571 34.4764 11.5632C34.6792 11.9693 35.0351 12.2782 35.4657 12.4219C35.8963 12.5657 36.3663 12.5325 36.7724 12.3297ZM41.1404 17.6335C41.1404 17.1797 40.9601 16.7445 40.6393 16.4237C40.3184 16.1028 39.8832 15.9226 39.4295 15.9226H36.0076C35.5539 15.9226 35.1187 16.1028 34.7979 16.4237C34.477 16.7445 34.2967 17.1797 34.2967 17.6335C34.2967 18.0872 34.477 18.5224 34.7979 18.8433C35.1187 19.1641 35.5539 19.3444 36.0076 19.3444H39.4295C39.8832 19.3444 40.3184 19.1641 40.6393 18.8433C40.9601 18.5224 41.1404 18.0872 41.1404 17.6335ZM30.8749 33.0316V2.23532C30.8749 1.78156 30.6947 1.34638 30.3738 1.02553C30.053 0.70467 29.6178 0.524414 29.164 0.524414C28.7103 0.524414 28.2751 0.70467 27.9542 1.02553C27.6334 1.34638 27.4531 1.78156 27.4531 2.23532C27.4531 7.28078 23.0338 9.07895 18.8986 9.07895H6.92224C5.1072 9.07895 3.36649 9.79997 2.08307 11.0834C0.799636 12.3668 0.0786133 14.1075 0.0786133 15.9226L0.0786133 19.3444C0.0786133 21.1594 0.799636 22.9001 2.08307 24.1836C3.36649 25.467 5.1072 26.188 6.92224 26.188H18.8986C23.0338 26.188 27.4531 27.9862 27.4531 33.0316C27.4531 33.4854 27.6334 33.9206 27.9542 34.2414C28.2751 34.5623 28.7103 34.7425 29.164 34.7425C29.6178 34.7425 30.053 34.5623 30.3738 34.2414C30.6947 33.9206 30.8749 33.4854 30.8749 33.0316ZM14.0841 29.6098H6.92224C6.12567 29.6066 5.33217 29.5108 4.55777 29.3241L8.83503 38.8744C9.19426 39.6816 9.77977 40.3673 10.5207 40.8486C11.2616 41.3299 12.1261 41.5861 13.0096 41.5862C13.7126 41.5852 14.4041 41.4084 15.0212 41.0718C15.6383 40.7351 16.1613 40.2495 16.5426 39.6589C16.9239 39.0684 17.1514 38.3919 17.2043 37.6909C17.2572 36.99 17.1339 36.287 16.8455 35.6459L14.0841 29.6098Z" fill="white"/>
</svg>
