<svg width="31" height="31" viewBox="0 0 31 31" fill="none" xmlns="http://www.w3.org/2000/svg">
<path d="M0.440748 25.8515V5.42498C0.438751 4.56606 0.656881 3.72096 1.07433 2.9703C1.49178 2.21965 2.09461 1.58849 2.82532 1.13704C3.55603 0.685586 4.39023 0.428907 5.24834 0.391491C6.10644 0.354075 6.95982 0.537169 7.72705 0.923306L28.1612 11.1379C28.9485 11.5272 29.6193 12.1173 30.1059 12.8484C30.5925 13.5796 30.8779 14.4261 30.9332 15.3027C30.9961 16.2918 30.7669 17.2775 30.2741 18.1373C29.7812 18.9971 29.0465 19.6931 28.1612 20.1387L7.72705 30.3532C6.95958 30.7371 6.10672 30.9184 5.24946 30.88C4.39219 30.8416 3.55899 30.5846 2.82895 30.1336C2.09892 29.6826 1.4963 29.0524 1.07832 28.303C0.660334 27.5535 0.440863 26.7097 0.440748 25.8515Z" fill="#FF962C"/>
</svg>
