<svg width="32" height="31" viewBox="0 0 32 31" fill="none" xmlns="http://www.w3.org/2000/svg">
<path d="M0.74861 25.9267V5.50017C0.746613 4.64125 0.964743 3.79615 1.38219 3.0455C1.79964 2.29485 2.40248 1.66368 3.13318 1.21223C3.86389 0.760781 4.69809 0.504103 5.5562 0.466686C6.4143 0.42927 7.26768 0.612365 8.03491 0.998501L28.4691 11.213C29.2564 11.6024 29.9271 12.1925 30.4138 12.9236C30.9004 13.6548 31.1857 14.5013 31.241 15.3779C31.304 16.367 31.0748 17.3527 30.5819 18.2125C30.0891 19.0723 29.3543 19.7683 28.4691 20.2139L8.03491 30.4284C7.26744 30.8123 6.41458 30.9936 5.55732 30.9552C4.70006 30.9168 3.86685 30.6598 3.13681 30.2088C2.40678 29.7578 1.80416 29.1276 1.38618 28.3782C0.968195 27.6287 0.748724 26.7849 0.74861 25.9267Z" fill="white"/>
</svg>
