<svg width="48" height="47" viewBox="0 0 48 47" fill="none" xmlns="http://www.w3.org/2000/svg">
<path d="M9.11503 21.3987H0.664062C0.667152 18.8192 1.6932 16.3463 3.51715 14.5224C5.3411 12.6984 7.81402 11.6724 10.3935 11.6693H22.0688V3.17745C22.0691 2.64181 22.2045 2.11491 22.4625 1.64547C22.7205 1.17604 23.0926 0.779236 23.5446 0.491764C23.9966 0.204291 24.5137 0.0354318 25.0483 0.00080445C25.5828 -0.0338229 26.1174 0.0668995 26.6027 0.293656L32.8295 3.21248C33.1111 3.38699 33.3435 3.63051 33.5046 3.91996C33.6657 4.2094 33.7503 4.5352 33.7503 4.86648C33.7503 5.19776 33.6657 5.52356 33.5046 5.813C33.3435 6.10245 33.1111 6.34597 32.8295 6.52048L25.9605 9.7234V11.6693H37.6358C40.2153 11.6724 42.6882 12.6984 44.5121 14.5224C46.3361 16.3463 47.3621 18.8192 47.3652 21.3987H38.9143C37.394 21.3991 35.9335 20.8064 34.8435 19.7466L29.5196 13.9499C28.0315 12.5148 26.0418 11.7177 23.9746 11.7286C21.9073 11.7396 19.9261 12.5575 18.4533 14.0082L13.2422 19.6883C12.1457 20.7801 10.6624 21.3948 9.11503 21.3987ZM24.0146 36.9658C23.4986 36.9658 23.0036 37.1708 22.6387 37.5357C22.2738 37.9006 22.0688 38.3956 22.0688 38.9116V46.6952H25.9605V38.9116C25.9605 38.3956 25.7555 37.9006 25.3906 37.5357C25.0257 37.1708 24.5307 36.9658 24.0146 36.9658ZM38.9143 25.2905H47.3652V40.8575C47.3652 42.4058 46.7502 43.8906 45.6554 44.9854C44.5607 46.0801 43.0758 46.6952 41.5276 46.6952H29.8523V38.9116C29.8523 37.3634 29.2373 35.8786 28.1425 34.7838C27.0477 33.689 25.5629 33.074 24.0146 33.074C22.4664 33.074 20.9816 33.689 19.8868 34.7838C18.792 35.8786 18.177 37.3634 18.177 38.9116V46.6952H6.50171C4.95347 46.6952 3.46864 46.0801 2.37387 44.9854C1.2791 43.8906 0.664063 42.4058 0.664063 40.8575L0.664062 25.2905H9.11503C10.4066 25.2909 11.6854 25.0339 12.8765 24.5344C14.0676 24.0349 15.1472 23.3029 16.0521 22.3814L21.2632 16.7013C21.999 16.011 22.9671 15.6219 23.976 15.6111C24.985 15.6003 25.9612 15.9685 26.7116 16.643L32.0395 22.4397C32.9402 23.3456 34.0115 24.0639 35.1915 24.5532C36.3715 25.0425 37.6368 25.2931 38.9143 25.2905ZM12.3394 40.8575C12.3394 40.3414 12.1343 39.8465 11.7694 39.4816C11.4045 39.1166 10.9096 38.9116 10.3935 38.9116H8.44759C7.93151 38.9116 7.43657 39.1166 7.07164 39.4816C6.70672 39.8465 6.50171 40.3414 6.50171 40.8575C6.50171 41.3736 6.70672 41.8685 7.07164 42.2335C7.43657 42.5984 7.93151 42.8034 8.44759 42.8034H10.3935C10.9096 42.8034 11.4045 42.5984 11.7694 42.2335C12.1343 41.8685 12.3394 41.3736 12.3394 40.8575ZM12.3394 33.074C12.3394 32.5579 12.1343 32.063 11.7694 31.698C11.4045 31.3331 10.9096 31.1281 10.3935 31.1281H8.44759C7.93151 31.1281 7.43657 31.3331 7.07164 31.698C6.70672 32.063 6.50171 32.5579 6.50171 33.074C6.50171 33.5901 6.70672 34.085 7.07164 34.4499C7.43657 34.8149 7.93151 35.0199 8.44759 35.0199H10.3935C10.9096 35.0199 11.4045 34.8149 11.7694 34.4499C12.1343 34.085 12.3394 33.5901 12.3394 33.074ZM27.9064 25.2905C27.9064 24.5207 27.6782 23.7683 27.2505 23.1283C26.8229 22.4883 26.2151 21.9895 25.504 21.6949C24.7928 21.4004 24.0103 21.3233 23.2554 21.4735C22.5005 21.6236 21.807 21.9943 21.2628 22.5386C20.7185 23.0828 20.3478 23.7763 20.1977 24.5312C20.0475 25.2861 20.1246 26.0686 20.4191 26.7798C20.7137 27.4909 21.2125 28.0987 21.8525 28.5263C22.4925 28.954 23.2449 29.1822 24.0146 29.1822C25.0468 29.1822 26.0367 28.7722 26.7665 28.0424C27.4964 27.3125 27.9064 26.3226 27.9064 25.2905ZM41.5276 40.8575C41.5276 40.3414 41.3226 39.8465 40.9577 39.4816C40.5927 39.1166 40.0978 38.9116 39.5817 38.9116H37.6358C37.1197 38.9116 36.6248 39.1166 36.2599 39.4816C35.895 39.8465 35.6899 40.3414 35.6899 40.8575C35.6899 41.3736 35.895 41.8685 36.2599 42.2335C36.6248 42.5984 37.1197 42.8034 37.6358 42.8034H39.5817C40.0978 42.8034 40.5927 42.5984 40.9577 42.2335C41.3226 41.8685 41.5276 41.3736 41.5276 40.8575ZM39.5817 31.1281H37.6358C37.1197 31.1281 36.6248 31.3331 36.2599 31.698C35.895 32.063 35.6899 32.5579 35.6899 33.074C35.6899 33.5901 35.895 34.085 36.2599 34.4499C36.6248 34.8149 37.1197 35.0199 37.6358 35.0199H39.5817C40.0978 35.0199 40.5927 34.8149 40.9577 34.4499C41.3226 34.085 41.5276 33.5901 41.5276 33.074C41.5276 32.5579 41.3226 32.063 40.9577 31.698C40.5927 31.3331 40.0978 31.1281 39.5817 31.1281Z" fill="#FF962C"/>
</svg>
