<svg width="24" height="23" viewBox="0 0 24 23" fill="none" xmlns="http://www.w3.org/2000/svg">
<path d="M1.62084 12.2906L5.02843 14.7793L3.73431 18.7871C3.52518 19.4087 3.52253 20.0812 3.72676 20.7044C3.93099 21.3276 4.33116 21.8681 4.86762 22.2454C5.39489 22.6347 6.03385 22.8433 6.68929 22.8401C7.34473 22.8368 7.98158 22.6218 8.50493 22.2272L11.8369 19.7749L15.1698 22.2243C15.6961 22.6115 16.3316 22.8217 16.985 22.8249C17.6383 22.8281 18.2759 22.624 18.8059 22.242C19.336 21.8601 19.7313 21.3198 19.935 20.699C20.1386 20.0782 20.1402 19.4088 19.9395 18.7871L18.6454 14.7793L22.0529 12.2906C22.5786 11.9063 22.9693 11.3658 23.1693 10.7461C23.3694 10.1265 23.3685 9.45947 23.1668 8.84036C22.9651 8.22126 22.5729 7.68172 22.0463 7.29883C21.5196 6.91594 20.8854 6.70927 20.2343 6.70834H16.0485L14.7783 2.74942C14.5786 2.12625 14.1861 1.58262 13.6574 1.19692C13.1288 0.811227 12.4913 0.603394 11.8369 0.603394C11.1825 0.603394 10.545 0.811227 10.0164 1.19692C9.4877 1.58262 9.0952 2.12625 8.89546 2.74942L7.62527 6.70834H3.44333C2.79219 6.70927 2.15801 6.91594 1.63135 7.29883C1.1047 7.68172 0.712514 8.22126 0.510816 8.84036C0.309119 9.45947 0.308226 10.1265 0.508266 10.7461C0.708305 11.3658 1.09904 11.9063 1.62467 12.2906H1.62084Z" fill="#FFE62C"/>
</svg>
