<svg width="24" height="23" viewBox="0 0 24 23" fill="none" xmlns="http://www.w3.org/2000/svg">
<path d="M1.58081 12.2906L4.98839 14.7793L3.69427 18.7871C3.48514 19.4087 3.48249 20.0812 3.68672 20.7044C3.89095 21.3276 4.29112 21.8681 4.82758 22.2454C5.35485 22.6347 5.99381 22.8433 6.64925 22.8401C7.3047 22.8368 7.94154 22.6218 8.46489 22.2272L11.7969 19.7749L15.1298 22.2243C15.6561 22.6115 16.2916 22.8217 16.945 22.8249C17.5983 22.8281 18.2358 22.624 18.7659 22.242C19.296 21.8601 19.6912 21.3198 19.8949 20.699C20.0986 20.0782 20.1002 19.4088 19.8994 18.7871L18.6053 14.7793L22.0129 12.2906C22.5385 11.9063 22.9293 11.3658 23.1293 10.7461C23.3293 10.1265 23.3285 9.45947 23.1268 8.84036C22.9251 8.22126 22.5329 7.68172 22.0062 7.29883C21.4796 6.91594 20.8454 6.70927 20.1942 6.70834H16.0085L14.7383 2.74942C14.5385 2.12625 14.146 1.58262 13.6174 1.19692C13.0887 0.811227 12.4512 0.603394 11.7969 0.603394C11.1425 0.603394 10.505 0.811227 9.97631 1.19692C9.44766 1.58262 9.05516 2.12625 8.85542 2.74942L7.58523 6.70834H3.40329C2.75216 6.70927 2.11797 6.91594 1.59132 7.29883C1.06466 7.68172 0.672475 8.22126 0.470777 8.84036C0.26908 9.45947 0.268187 10.1265 0.468227 10.7461C0.668266 11.3658 1.05901 11.9063 1.58463 12.2906H1.58081Z" fill="#EBEBEB"/>
</svg>
