<svg width="41" height="39" viewBox="0 0 41 39" fill="none" xmlns="http://www.w3.org/2000/svg">
<path d="M2.93148 20.6692L8.84967 24.9914L6.60209 31.952C6.23887 33.0315 6.23427 34.1996 6.58897 35.2819C6.94367 36.3643 7.63868 37.3031 8.57038 37.9583C9.48613 38.6345 10.5959 38.9968 11.7342 38.9911C12.8726 38.9854 13.9786 38.612 14.8876 37.9267L20.6744 33.6676L26.4629 37.9217C27.377 38.5941 28.4808 38.9593 29.6155 38.9648C30.7502 38.9703 31.8575 38.6159 32.778 37.9525C33.6986 37.289 34.3852 36.3508 34.7389 35.2726C35.0926 34.1944 35.0954 33.0318 34.7467 31.952L32.4992 24.9914L38.4173 20.6692C39.3302 20.0017 40.0089 19.0629 40.3563 17.9867C40.7037 16.9105 40.7022 15.7521 40.3519 14.6768C40.0016 13.6016 39.3204 12.6645 38.4057 11.9995C37.4911 11.3345 36.3896 10.9756 35.2588 10.974H27.989L25.783 4.09824C25.4361 3.01594 24.7544 2.07179 23.8363 1.40192C22.9181 0.732053 21.8109 0.371094 20.6744 0.371094C19.5379 0.371094 18.4307 0.732053 17.5126 1.40192C16.5944 2.07179 15.9127 3.01594 15.5658 4.09824L13.3598 10.974H6.09671C4.96584 10.9756 3.86441 11.3345 2.94973 11.9995C2.03505 12.6645 1.35392 13.6016 1.00361 14.6768C0.65331 15.7521 0.65176 16.9105 0.999183 17.9867C1.34661 19.0629 2.02523 20.0017 2.93813 20.6692H2.93148Z" fill="#FF962C"/>
</svg>
