<svg width="43" height="42" viewBox="0 0 43 42" fill="none" xmlns="http://www.w3.org/2000/svg">
<path d="M40.4023 19.1945H33.3333C33.1983 18.2399 32.9487 17.305 32.59 16.4102L38.7009 12.8687C38.9051 12.7588 39.0852 12.609 39.2305 12.4282C39.3758 12.2474 39.4833 12.0393 39.5466 11.8162C39.6099 11.5931 39.6278 11.3595 39.5992 11.1294C39.5706 10.8992 39.4961 10.6771 39.3801 10.4763C39.2641 10.2755 39.1089 10.1 38.9238 9.96023C38.7387 9.82048 38.5275 9.71932 38.3026 9.66273C38.0776 9.60615 37.8436 9.5953 37.6145 9.63083C37.3853 9.66636 37.1655 9.74754 36.9683 9.86956L30.8522 13.4162C30.2675 12.6776 29.5995 12.009 28.8614 11.4237L32.4063 5.30586C32.6198 4.90918 32.6704 4.44496 32.5474 4.01162C32.4243 3.57827 32.1374 3.20988 31.7473 2.98454C31.3573 2.75921 30.8948 2.69464 30.4579 2.80454C30.0211 2.91444 29.6442 3.19016 29.4072 3.57325L25.8605 9.68071C24.9658 9.32158 24.0309 9.072 23.0762 8.93741V1.86835C23.0762 1.40884 22.8937 0.968141 22.5687 0.643213C22.2438 0.318285 21.8031 0.135742 21.3436 0.135742C20.8841 0.135742 20.4434 0.318285 20.1185 0.643213C19.7935 0.968141 19.611 1.40884 19.611 1.86835V8.93741C18.6563 9.072 17.7214 9.32158 16.8267 9.68071L13.2852 3.56978C13.0482 3.1867 12.6713 2.91098 12.2345 2.80108C11.7976 2.69118 11.3351 2.75574 10.9451 2.98108C10.555 3.20642 10.2681 3.57481 10.145 4.00815C10.022 4.44149 10.0726 4.90572 10.2861 5.30239L13.831 11.4237C13.0929 12.009 12.4249 12.6776 11.8402 13.4162L5.72409 9.86956C5.52686 9.74754 5.30713 9.66636 5.07794 9.63083C4.84875 9.5953 4.61476 9.60615 4.38984 9.66273C4.16492 9.71932 3.95365 9.82048 3.76855 9.96023C3.58345 10.1 3.4283 10.2755 3.31228 10.4763C3.19626 10.6771 3.12175 10.8992 3.09315 11.1294C3.06455 11.3595 3.08245 11.5931 3.14579 11.8162C3.20913 12.0393 3.31662 12.2474 3.46189 12.4282C3.60716 12.609 3.78725 12.7588 3.99148 12.8687L10.0972 16.4102C9.73847 17.305 9.4889 18.2399 9.35392 19.1945H2.28486C1.82534 19.1945 1.38464 19.377 1.05972 19.702C0.734789 20.0269 0.552246 20.4676 0.552246 20.9271C0.552246 21.3866 0.734789 21.8273 1.05972 22.1522C1.38464 22.4772 1.82534 22.6597 2.28486 22.6597H9.35392C9.4889 23.6143 9.73847 24.5492 10.0972 25.444L3.98628 28.9855C3.78205 29.0954 3.60196 29.2452 3.45669 29.426C3.31143 29.6068 3.20393 29.8149 3.14059 30.038C3.07725 30.2611 3.05935 30.4947 3.08795 30.7248C3.11655 30.955 3.19106 31.1771 3.30708 31.3779C3.4231 31.5787 3.57825 31.7542 3.76335 31.894C3.94845 32.0337 4.15972 32.1349 4.38464 32.1915C4.60956 32.248 4.84355 32.2589 5.07274 32.2234C5.30194 32.1878 5.52166 32.1066 5.7189 31.9846L11.835 28.438C12.4197 29.1766 13.0877 29.8452 13.8258 30.4305L10.2861 36.5483C10.0726 36.945 10.022 37.4092 10.145 37.8426C10.2681 38.2759 10.555 38.6443 10.9451 38.8696C11.3351 39.095 11.7976 39.1595 12.2345 39.0496C12.6713 38.9397 13.0482 38.664 13.2852 38.2809L16.8267 32.17C17.7215 32.5296 18.6563 32.7803 19.611 32.9168V39.9858C19.611 40.4454 19.7935 40.886 20.1185 41.211C20.4434 41.5359 20.8841 41.7184 21.3436 41.7184C21.8031 41.7184 22.2438 41.5359 22.5687 41.211C22.8937 40.886 23.0762 40.4454 23.0762 39.9858V32.9168C24.0307 32.7814 24.9655 32.5319 25.8605 32.1735L29.402 38.2844C29.639 38.6675 30.0159 38.9432 30.4527 39.0531C30.8896 39.163 31.3521 39.0984 31.7421 38.8731C32.1322 38.6478 32.4191 38.2794 32.5422 37.846C32.6652 37.4127 32.6146 36.9485 32.4011 36.5518L28.8562 30.4339C29.5943 29.8486 30.2623 29.18 30.847 28.4414L36.9631 31.9881C37.1603 32.1101 37.3801 32.1913 37.6093 32.2268C37.8384 32.2623 38.0724 32.2515 38.2974 32.1949C38.5223 32.1383 38.7335 32.0372 38.9186 31.8974C39.1037 31.7577 39.2589 31.5822 39.3749 31.3814C39.4909 31.1805 39.5654 30.9585 39.594 30.7283C39.6226 30.4981 39.6047 30.2646 39.5414 30.0415C39.4781 29.8184 39.3706 29.6102 39.2253 29.4294C39.08 29.2486 38.8999 29.0988 38.6957 28.9889L32.5848 25.4475C32.9456 24.5517 33.1969 23.6157 33.3333 22.6597H40.4023C40.8619 22.6597 41.3026 22.4772 41.6275 22.1522C41.9524 21.8273 42.1349 21.3866 42.1349 20.9271C42.1349 20.4676 41.9524 20.0269 41.6275 19.702C41.3026 19.377 40.8619 19.1945 40.4023 19.1945Z" fill="#FF962C"/>
</svg>
