<svg width="47" height="47" viewBox="0 0 47 47" fill="none" xmlns="http://www.w3.org/2000/svg">
<g clip-path="url(#clip0_1_548)">
<path d="M45.9908 10.9275L36.4074 1.34418C36.046 0.995047 35.5618 0.801858 35.0593 0.806225C34.5567 0.810592 34.076 1.01217 33.7206 1.36753C33.3653 1.7229 33.1637 2.20362 33.1593 2.70616C33.155 3.20871 33.3481 3.69286 33.6973 4.05435L37.1339 7.49093L32.3901 12.2347C30.8781 11.1326 29.0766 10.4973 27.2077 10.4071C25.3389 10.3168 23.4845 10.7756 21.8734 11.7268L26.8241 16.6775C27.0072 16.8543 27.1532 17.0658 27.2536 17.2997C27.3541 17.5335 27.407 17.785 27.4092 18.0395C27.4114 18.294 27.3629 18.5464 27.2665 18.7819C27.1701 19.0175 27.0278 19.2315 26.8479 19.4114C26.6679 19.5914 26.4539 19.7337 26.2184 19.8301C25.9828 19.9265 25.7304 19.975 25.4759 19.9727C25.2214 19.9705 24.9699 19.9177 24.7361 19.8172C24.5022 19.7168 24.2908 19.5707 24.1139 19.3877L18.9255 14.1993L15.8857 17.2391L21.0741 22.4275C21.2572 22.6043 21.4032 22.8158 21.5036 23.0497C21.6041 23.2835 21.657 23.535 21.6592 23.7895C21.6614 24.044 21.6129 24.2964 21.5165 24.5319C21.4201 24.7675 21.2778 24.9815 21.0979 25.1614C20.9179 25.3414 20.7039 25.4837 20.4684 25.5801C20.2328 25.6765 19.9804 25.725 19.7259 25.7227C19.4714 25.7205 19.2199 25.6677 18.9861 25.5672C18.7522 25.4668 18.5408 25.3207 18.3639 25.1377L13.1755 19.9493L10.1357 22.9929L15.3203 28.1775C15.5033 28.3543 15.6494 28.5658 15.7498 28.7997C15.8503 29.0335 15.9031 29.285 15.9053 29.5395C15.9076 29.794 15.8591 30.0464 15.7627 30.2819C15.6663 30.5175 15.524 30.7315 15.344 30.9114C15.1641 31.0914 14.9501 31.2337 14.7145 31.3301C14.479 31.4265 14.2266 31.475 13.9721 31.4727C13.7176 31.4705 13.4661 31.4177 13.2323 31.3172C12.9984 31.2168 12.7869 31.0707 12.6101 30.8877L7.84719 26.1209C6.82867 28.0494 6.29826 30.198 6.30236 32.3788V38.3205L1.11394 43.5108C0.930883 43.6877 0.784867 43.8991 0.684417 44.133C0.583966 44.3668 0.531092 44.6183 0.528881 44.8728C0.526669 45.1273 0.575164 45.3797 0.671536 45.6153C0.767908 45.8508 0.910226 46.0648 1.09019 46.2448C1.27015 46.4247 1.48415 46.5671 1.7197 46.6634C1.95525 46.7598 2.20764 46.8083 2.46213 46.8061C2.71662 46.8039 2.96813 46.751 3.20197 46.6505C3.43581 46.5501 3.6473 46.4041 3.82411 46.221L9.01253 41.0326H14.9542C16.7165 41.0373 18.4623 40.6925 20.0905 40.018C21.7187 39.3436 23.197 38.3529 24.4398 37.1034L34.1611 27.3821C35.7709 25.763 36.7488 23.6217 36.9182 21.3448C37.0876 19.0679 36.4374 16.8055 35.0849 14.9659L39.844 10.2011L43.2806 13.6377C43.6421 13.9868 44.1263 14.18 44.6288 14.1756C45.1313 14.1713 45.6121 13.9697 45.9674 13.6143C46.3228 13.259 46.5244 12.7782 46.5287 12.2757C46.5331 11.7732 46.3399 11.289 45.9908 10.9275Z" fill="#FF962C"/>
</g>
<defs>
<clipPath id="clip0_1_548">
<rect width="46" height="46" fill="white" transform="translate(0.552246 0.781738)"/>
</clipPath>
</defs>
</svg>
