<svg width="35" height="35" viewBox="0 0 35 35" fill="none" xmlns="http://www.w3.org/2000/svg">
<g clip-path="url(#clip0_1_532)">
<path d="M32.8346 29.0438H21.2406C21.0289 28.4513 20.6883 27.9131 20.2434 27.4682C19.7985 27.0233 19.2604 26.6828 18.6679 26.4711V20.5721C20.5719 20.5721 22.2379 20.5551 23.0596 20.5395C23.5675 20.5296 24.0731 20.4674 24.5683 20.354C25.8443 20.0569 27.0116 19.4084 27.938 18.482C28.8644 17.5556 29.5129 16.3883 29.81 15.1123C30.2383 13.3179 29.9514 11.4273 29.01 9.84074C28.0687 8.25421 26.5468 7.09633 24.7666 6.61229L24.5173 6.55138C24.0923 6.45646 23.877 6.40971 23.6843 5.94504C22.9991 4.29166 21.8095 2.89674 20.285 1.9591C18.7606 1.02145 16.979 0.588928 15.1943 0.723169C13.4096 0.85741 11.7129 1.55156 10.3458 2.7067C8.97876 3.86184 8.01121 5.41901 7.58105 7.15629C7.2747 8.42592 7.24763 9.74693 7.50172 11.028C6.55862 11.4337 5.76469 12.1221 5.22952 12.9982C4.69436 13.8744 4.44434 14.895 4.514 15.9193C4.58365 16.9436 4.96954 17.921 5.61838 18.7166C6.26723 19.5122 7.14705 20.0868 8.13639 20.361C8.52192 20.467 8.91835 20.5283 9.31789 20.5438C10.243 20.5693 12.929 20.5806 15.7226 20.5806H15.8346V26.4754C15.2425 26.6866 14.7046 27.0265 14.2597 27.4706C13.8149 27.9148 13.4741 28.4521 13.2619 29.0438H1.66789C1.29216 29.0438 0.931829 29.193 0.666153 29.4587C0.400476 29.7244 0.251221 30.0847 0.251221 30.4605C0.251221 30.8362 0.400476 31.1965 0.666153 31.4622C0.931829 31.7279 1.29216 31.8771 1.66789 31.8771H13.2619C13.5504 32.7052 14.0894 33.423 14.8043 33.931C15.5191 34.4389 16.3743 34.7118 17.2512 34.7118C18.1281 34.7118 18.9833 34.4389 19.6982 33.931C20.413 33.423 20.9521 32.7052 21.2406 31.8771H32.8346C33.2103 31.8771 33.5706 31.7279 33.8363 31.4622C34.102 31.1965 34.2512 30.8362 34.2512 30.4605C34.2512 30.0847 34.102 29.7244 33.8363 29.4587C33.5706 29.193 33.2103 29.0438 32.8346 29.0438Z" fill="white"/>
</g>
<defs>
<clipPath id="clip0_1_532">
<rect width="34" height="34" fill="white" transform="translate(0.251221 0.710938)"/>
</clipPath>
</defs>
</svg>
