<svg width="28" height="42" viewBox="0 0 28 42" fill="none" xmlns="http://www.w3.org/2000/svg">
<path d="M18.6438 41.1243C17.707 41.1258 16.788 40.8683 15.9883 40.3804C15.1886 39.8924 14.5394 39.1929 14.1123 38.3591L8.82687 27.0277L2.84002 32.2556C2.59558 32.4692 2.29479 32.6079 1.97362 32.6551C1.65244 32.7023 1.32447 32.656 1.0289 32.5218C0.733335 32.3876 0.482674 32.1711 0.306882 31.8982C0.131089 31.6252 0.0376035 31.3075 0.0375977 30.9829V5.59539C0.0375515 4.61862 0.319619 3.66263 0.849893 2.84233C1.38017 2.02203 2.13608 1.37234 3.02675 0.971369C3.91742 0.570396 4.90495 0.435203 5.87062 0.582043C6.83629 0.728882 7.739 1.1515 8.47023 1.7991L26.5559 19.1038C26.7905 19.328 26.9557 19.615 27.0317 19.9305C27.1076 20.246 27.0911 20.5767 26.9842 20.8831C26.8773 21.1895 26.6844 21.4586 26.4286 21.6583C26.1728 21.8581 25.8649 21.9799 25.5417 22.0094L17.9897 22.6973L23.1703 33.8005C23.5531 34.5724 23.733 35.4291 23.6929 36.2897C23.6528 37.1504 23.394 37.9866 22.941 38.7195C22.4881 39.4524 21.8558 40.0578 21.1039 40.4786C20.3521 40.8993 19.5054 41.1216 18.6438 41.1243Z" fill="white"/>
</svg>
