<svg width="46" height="46" viewBox="0 0 46 46" fill="none" xmlns="http://www.w3.org/2000/svg">
<g clip-path="url(#clip0_1_578)">
<path d="M19.1907 32.7195H14.1825C13.4433 32.7219 12.7109 32.5774 12.0279 32.2945C11.3449 32.0115 10.7249 31.5958 10.2038 31.0714L0.538174 21.4058C0.483799 22.047 0.440674 22.6901 0.440674 23.3445C0.448908 28.9832 2.57244 34.4135 6.39144 38.562C10.2104 42.7105 15.4469 45.2751 21.0657 45.7489V34.5945C21.0657 34.0972 20.8681 33.6203 20.5165 33.2687C20.1649 32.9171 19.688 32.7195 19.1907 32.7195Z" fill="#FF962C"/>
<path d="M38.7582 7.36621L35.4019 10.7225C34.5213 11.5983 33.3308 12.0914 32.0888 12.095H29.5032C29.2545 12.095 29.0161 12.1937 28.8403 12.3695C28.6644 12.5454 28.5657 12.7838 28.5657 13.0325V14.9075C28.5657 16.1507 28.0718 17.3429 27.1927 18.222C26.3137 19.1011 25.1214 19.595 23.8782 19.595C23.6295 19.595 23.3911 19.6937 23.2153 19.8695C23.0394 20.0454 22.9407 20.2838 22.9407 20.5325V21.47C22.9407 21.9672 23.1382 22.4442 23.4898 22.7958C23.8415 23.1474 24.3184 23.345 24.8157 23.345H30.4407C31.9325 23.345 33.3633 23.9376 34.4181 24.9925C35.473 26.0474 36.0657 27.4781 36.0657 28.97V30.7737C36.0657 31.0219 36.1642 31.2599 36.3394 31.4356L41.2613 36.3593C44.3641 32.0199 45.8167 26.7158 45.3578 21.401C44.899 16.0863 42.5588 11.1096 38.7582 7.36621Z" fill="#FF962C"/>
<path d="M32.3154 30.7749V28.9712C32.3154 28.4739 32.1179 27.997 31.7663 27.6453C31.4146 27.2937 30.9377 27.0962 30.4404 27.0962H24.8154C23.3236 27.0962 21.8928 26.5035 20.838 25.4486C19.7831 24.3937 19.1904 22.963 19.1904 21.4712V20.5337C19.1904 19.2905 19.6843 18.0982 20.5634 17.2191C21.4424 16.34 22.6347 15.8462 23.8779 15.8462C24.1266 15.8462 24.365 15.7474 24.5408 15.5716C24.7167 15.3958 24.8154 15.1573 24.8154 14.9087V13.0337C24.8154 11.7905 25.3093 10.5982 26.1884 9.7191C27.0674 8.84003 28.2597 8.34617 29.5029 8.34617H32.0886C32.3364 8.3447 32.5739 8.24647 32.7504 8.07242L35.8648 4.95804C32.9491 2.89867 29.5843 1.56424 26.0496 1.06546C22.5149 0.566683 18.9123 0.917928 15.5405 2.09006C12.1688 3.26219 9.12511 5.22142 6.66204 7.8052C4.19897 10.389 2.38751 13.5228 1.37793 16.9468L12.8529 28.4218C13.0274 28.5964 13.2347 28.7348 13.4628 28.829C13.691 28.9233 13.9355 28.9716 14.1823 28.9712H19.1904C20.6823 28.9712 22.113 29.5638 23.1679 30.6187C24.2228 31.6736 24.8154 33.1043 24.8154 34.5962V45.7505C30.1155 45.3144 35.0882 43.0091 38.8461 39.2462L33.6879 34.088C32.8121 33.2074 32.319 32.0169 32.3154 30.7749Z" fill="#FF962C"/>
</g>
<defs>
<clipPath id="clip0_1_578">
<rect width="45" height="45" fill="white" transform="translate(0.440674 0.844727)"/>
</clipPath>
</defs>
</svg>
